<?xml version="1.0" encoding="UTF-8" standalone="no"?>
<!-- Created with Inkscape (http://www.inkscape.org/) -->

<svg
   width="1536"
   height="4320"
   viewBox="0 0 512 1440"
   version="1.1"
   id="svg5"
   sodipodi:docname="drawing2.svg"
   inkscape:version="1.2.2 (732a01da63, 2022-12-09)"
   xmlns:inkscape="http://www.inkscape.org/namespaces/inkscape"
   xmlns:sodipodi="http://sodipodi.sourceforge.net/DTD/sodipodi-0.dtd"
   xmlns="http://www.w3.org/2000/svg"
   xmlns:svg="http://www.w3.org/2000/svg">
  <sodipodi:namedview
     id="namedview7"
     pagecolor="#ffffff"
     bordercolor="#000000"
     borderopacity="0.25"
     inkscape:showpageshadow="2"
     inkscape:pageopacity="0.0"
     inkscape:pagecheckerboard="0"
     inkscape:deskcolor="#d1d1d1"
     inkscape:document-units="px"
     showgrid="false"
     inkscape:zoom="0.52599003"
     inkscape:cx="737.65657"
     inkscape:cy="1584.6308"
     inkscape:window-width="1920"
     inkscape:window-height="1051"
     inkscape:window-x="-9"
     inkscape:window-y="-9"
     inkscape:window-maximized="1"
     inkscape:current-layer="layer3" />
  <defs
     id="defs2" />
  <g
     inkscape:label="Layer 1"
     inkscape:groupmode="layer"
     id="layer1"
     transform="matrix(0.6707381,0,0,0.6707381,172.87163,102.38418)">
    <rect
       style="fill:#676cdb;fill-opacity:1;stroke-width:0.333333"
       id="rect1908"
       width="39.433826"
       height="117.40525"
       x="466.03613"
       y="97.240227" />
    <path
       style="fill:#ff8059;fill-opacity:1;stroke-width:0.333333;stroke-dasharray:none"
       id="path4866"
       sodipodi:type="arc"
       sodipodi:cx="-181.32066"
       sodipodi:cy="426.66666"
       sodipodi:rx="33.333332"
       sodipodi:ry="33.333332"
       sodipodi:start="0"
       sodipodi:end="3.1415927"
       sodipodi:arc-type="slice"
       d="m -147.98733,426.66666 a 33.333332,33.333332 0 0 1 -16.66667,28.86751 33.333332,33.333332 0 0 1 -33.33333,0 33.333332,33.333332 0 0 1 -16.66667,-28.86751 h 33.33334 z"
       transform="rotate(-90)" />
    <circle
       style="fill:#ffd041;fill-opacity:1;stroke-width:0.333333;stroke-dasharray:none"
       id="path8258"
       cx="396"
       cy="172.37335"
       r="23.333334" />
    <path
       id="rect11268"
       style="fill:#3aafc9;fill-opacity:1;stroke-width:0.274996;stroke-dasharray:none"
       d="m 396,202.31706 a 23.333334,23.333334 0 0 0 -11.66667,3.12565 23.333334,23.333334 0 0 0 -11.66471,20.16341 h -0.002 v 0.0443 56.67253 h 46.66666 v -56.67253 a 23.333334,23.333334 0 0 0 0,-0.0443 A 23.333334,23.333334 0 0 0 407.66667,205.44271 23.333334,23.333334 0 0 0 396,202.31706 Z" />
    <path
       style="fill:#b9d1e4;fill-opacity:1;stroke-width:0.333333;stroke-dasharray:none"
       id="path12829"
       sodipodi:type="arc"
       sodipodi:cx="460"
       sodipodi:cy="222.1208"
       sodipodi:rx="33.333332"
       sodipodi:ry="33.333332"
       sodipodi:start="0"
       sodipodi:end="3.1415927"
       sodipodi:arc-type="slice"
       d="m 493.33333,222.1208 a 33.333332,33.333332 0 0 1 -16.66666,28.86752 33.333332,33.333332 0 0 1 -33.33334,0 33.333332,33.333332 0 0 1 -16.66666,-28.86752 H 460 Z" />
  </g>
  <g
     inkscape:groupmode="layer"
     id="layer2"
     inkscape:label="Layer 2"
     transform="matrix(0.75066395,0,0,0.75066534,0,26.89839)">
    <path
       style="fill:#676cdb;fill-opacity:1;stroke-width:0.333333;stroke-dasharray:none"
       id="path23054"
       sodipodi:type="arc"
       sodipodi:cx="-370"
       sodipodi:cy="9.999999"
       sodipodi:rx="33.333332"
       sodipodi:ry="33.333332"
       sodipodi:start="0"
       sodipodi:end="3.1415927"
       sodipodi:arc-type="slice"
       d="m -336.66667,9.999999 a 33.333332,33.333332 0 0 1 -16.66666,28.867513 33.333332,33.333332 0 0 1 -33.33334,-10e-7 33.333332,33.333332 0 0 1 -16.66666,-28.867512 H -370 Z"
       transform="rotate(-90)" />
    <rect
       style="fill:#676cdb;fill-opacity:1;stroke-width:0.262467;stroke-dasharray:none"
       id="rect23108"
       width="10.333333"
       height="66.666664"
       x="0"
       y="336.66666" />
    <circle
       style="fill:#3aafc9;fill-opacity:1;stroke-width:0.333333;stroke-dasharray:none"
       id="path23110"
       cx="48"
       cy="335.33334"
       r="33.333332" />
    <rect
       style="fill:#3aafc9;fill-opacity:1;stroke-width:0.333333;stroke-dasharray:none"
       id="rect26742"
       width="33.333332"
       height="33.333332"
       x="14.666667"
       y="335.33334" />
  </g>
  <g
     inkscape:groupmode="layer"
     id="g28204"
     inkscape:label="Layer 3"
     transform="matrix(-0.75845705,0,0,0.75845705,511.29646,272.18587)">
    <path
       style="fill:#676cdb;fill-opacity:1;stroke-width:0.333333;stroke-dasharray:none"
       id="path28196"
       sodipodi:type="arc"
       sodipodi:cx="-370"
       sodipodi:cy="9.0724106"
       sodipodi:rx="33.333332"
       sodipodi:ry="33.333332"
       sodipodi:start="0"
       sodipodi:end="3.1415927"
       sodipodi:arc-type="slice"
       d="m -336.66667,9.0724106 a 33.333332,33.333332 0 0 1 -16.66666,28.8675124 33.333332,33.333332 0 0 1 -33.33334,-10e-7 33.333332,33.333332 0 0 1 -16.66666,-28.8675114 H -370 Z"
       transform="rotate(-90)" />
    <rect
       style="fill:#676cdb;fill-opacity:1;stroke-width:0.262467;stroke-dasharray:none"
       id="rect28198"
       width="10.333333"
       height="66.666664"
       x="-0.9275887"
       y="336.66666" />
    <circle
       style="fill:#ff8059;fill-opacity:1;stroke-width:0.333333;stroke-dasharray:none"
       id="circle28200"
       cx="47.072411"
       cy="335.33334"
       r="33.333332" />
    <rect
       style="fill:#ff8059;fill-opacity:1;stroke-width:0.333333;stroke-dasharray:none"
       id="rect28202"
       width="33.333332"
       height="33.333332"
       x="14.666667"
       y="335.33334" />
  </g>
  <g
     inkscape:groupmode="layer"
     id="layer3"
     inkscape:label="Layer 4"
     transform="matrix(0.69022776,0,0,0.69022776,4.1302941,169.21293)">
    <path
       style="fill:#ff8059;fill-opacity:1;stroke-width:0.333333;stroke-dasharray:none"
       id="path30384"
       transform="translate(511.0724,174.76355)"
       sodipodi:type="arc"
       sodipodi:cx="-447.73907"
       sodipodi:cy="467.82855"
       sodipodi:rx="50"
       sodipodi:ry="50"
       sodipodi:start="0"
       sodipodi:end="4.712389"
       sodipodi:arc-type="slice"
       d="m -397.73907,467.82855 a 50,50 0 0 1 -30.86583,46.19398 50,50 0 0 1 -54.48951,-10.83864 50,50 0 0 1 -10.83864,-54.48951 50,50 0 0 1 46.19398,-30.86583 v 50 z" />
    <path
       style="fill:#3aafc9;fill-opacity:1;stroke-width:0.333333;stroke-dasharray:none"
       id="path31112"
       transform="translate(511.0724,174.76355)"
       sodipodi:type="arc"
       sodipodi:cx="-433.17545"
       sodipodi:cy="406.43723"
       sodipodi:rx="50"
       sodipodi:ry="50"
       sodipodi:start="0"
       sodipodi:end="1.5707963"
       sodipodi:arc-type="slice"
       d="m -383.17545,406.43723 a 50,50 0 0 1 -50,50 v -50 z" />
  </g>
</svg>
