<?xml version="1.0" standalone="no"?>
<!DOCTYPE svg PUBLIC "-//W3C//DTD SVG 20010904//EN"
 "http://www.w3.org/TR/2001/REC-SVG-20010904/DTD/svg10.dtd">
<svg version="1.0" xmlns="http://www.w3.org/2000/svg"
 width="7680.000000pt" height="4320.000000pt" viewBox="0 0 7680.000000 4320.000000"
 preserveAspectRatio="xMidYMid meet">

<g transform="translate(0.000000,4320.000000) scale(0.100000,-0.100000)"
fill="#000000" stroke="none">
<path d="M24478 33863 c525 -2 1380 -2 1900 0 521 1 92 2 -953 2 -1045 0
-1471 -1 -947 -2z"/>
<path d="M73147 33863 c-5 -7 1098 -7 2623 0 316 1 -144 3 -1022 5 -878 1
-1599 -1 -1601 -5z"/>
<path d="M23495 31930 c0 -1053 1 -1484 2 -957 2 526 2 1388 0 1915 -1 526 -2
95 -2 -958z"/>
<path d="M73142 33832 c-10 -7 -12 -1093 -12 -5442 0 -3192 4 -5438 9 -5443 5
-5 20 -9 32 -9 13 0 732 0 1597 1 l1572 1 0 5444 c0 4955 -1 5444 -16 5450
-24 9 -3167 7 -3182 -2z m2366 -9 c-423 -2 -1113 -2 -1535 0 -423 1 -77 2 767
2 844 0 1190 -1 768 -2z m805 0 c-7 -2 -19 -2 -25 0 -7 3 -2 5 12 5 14 0 19
-2 13 -5z"/>
<path d="M73087 33823 c-4 -3 -7 -2454 -7 -5446 0 -2992 2 -5438 5 -5435 4 4
14 10888 10 10888 -1 0 -5 -3 -8 -7z"/>
<path d="M27346 33648 c-9 -103 -12 -218 -5 -205 9 15 24 267 16 267 -3 0 -8
-28 -11 -62z"/>
<path d="M27305 33262 c-4 -29 -5 -56 -2 -59 7 -7 20 82 15 99 -3 7 -8 -11
-13 -40z"/>
<path d="M27267 33057 c-4 -10 -7 -28 -6 -40 0 -21 1 -21 10 2 5 14 8 32 7 40
-3 13 -5 13 -11 -2z"/>
<path d="M27226 32885 c-3 -9 -6 -26 -5 -38 1 -16 4 -12 10 12 10 34 6 55 -5
26z"/>
<path d="M27190 32737 c0 -1 -4 -18 -10 -36 -5 -20 -6 -31 -1 -25 12 11 25 64
17 64 -3 0 -6 -1 -6 -3z"/>
<path d="M27147 32614 c-4 -4 -7 -17 -7 -28 1 -19 1 -20 11 -3 11 19 8 43 -4
31z"/>
<path d="M27107 32503 c-4 -3 -7 -16 -6 -27 0 -19 1 -19 10 3 10 24 8 36 -4
24z"/>
<path d="M21990 32470 c-27 -6 -29 -8 -10 -8 14 -1 43 3 65 7 33 7 35 9 10 9
-16 -1 -46 -4 -65 -8z"/>
<path d="M22462 32455 c0 -16 2 -22 5 -12 2 9 2 23 0 30 -3 6 -5 -1 -5 -18z"/>
<path d="M21735 32430 c-25 -11 1 -11 35 0 20 6 21 8 5 8 -11 0 -29 -3 -40 -8z"/>
<path d="M21598 32393 c7 -3 16 -2 19 1 4 3 -2 6 -13 5 -11 0 -14 -3 -6 -6z"/>
<path d="M27060 32376 c-15 -39 -12 -46 6 -13 9 16 13 31 10 34 -3 3 -10 -6
-16 -21z"/>
<path d="M22460 31605 c-3 -434 -5 -1187 -5 -1673 0 -730 2 -881 13 -877 8 3
777 6 1710 7 l1697 3 -1700 5 -1700 5 -5 1660 c-4 1416 -6 1544 -10 870z"/>
<path d="M21420 32350 c-18 -12 -2 -12 25 0 13 6 15 9 5 9 -8 0 -22 -4 -30 -9z"/>
<path d="M21310 32310 c-8 -5 -10 -10 -5 -10 6 0 17 5 25 10 8 5 11 10 5 10
-5 0 -17 -5 -25 -10z"/>
<path d="M27020 32290 c-6 -12 -9 -24 -7 -27 3 -2 11 5 17 17 6 12 9 24 7 27
-3 2 -11 -5 -17 -17z"/>
<path d="M21205 32270 c-8 -13 5 -13 25 0 13 8 13 10 -2 10 -9 0 -20 -4 -23
-10z"/>
<path d="M21110 32230 c-9 -6 -10 -10 -3 -10 6 0 15 5 18 10 8 12 4 12 -15 0z"/>
<path d="M26983 32213 c-3 -10 -8 -22 -10 -28 -3 -5 3 -1 11 9 16 20 21 36 11
36 -3 0 -8 -8 -12 -17z"/>
<path d="M21030 32190 c-8 -5 -10 -10 -5 -10 6 0 17 5 25 10 8 5 11 10 5 10
-5 0 -17 -5 -25 -10z"/>
<path d="M20950 32150 c-8 -5 -10 -10 -5 -10 6 0 17 5 25 10 8 5 11 10 5 10
-5 0 -17 -5 -25 -10z"/>
<path d="M26940 32130 c-6 -12 -9 -24 -7 -27 3 -2 11 5 17 17 6 12 9 24 7 27
-3 2 -11 -5 -17 -17z"/>
<path d="M20870 32110 c-8 -5 -10 -10 -5 -10 6 0 17 5 25 10 8 5 11 10 5 10
-5 0 -17 -5 -25 -10z"/>
<path d="M20800 32069 c0 -5 5 -7 10 -4 6 3 10 8 10 11 0 2 -4 4 -10 4 -5 0
-10 -5 -10 -11z"/>
<path d="M26903 32053 c-3 -10 -8 -22 -10 -28 -3 -5 3 -1 11 9 16 20 21 36 11
36 -3 0 -8 -8 -12 -17z"/>
<path d="M20729 32023 c-13 -16 -12 -17 4 -4 16 13 21 21 13 21 -2 0 -10 -8
-17 -17z"/>
<path d="M20659 31983 c-13 -17 -13 -17 6 -3 11 8 22 16 24 17 2 2 0 3 -6 3
-6 0 -17 -8 -24 -17z"/>
<path d="M26860 31981 c-6 -12 -7 -21 -1 -21 10 0 24 30 17 37 -2 3 -9 -5 -16
-16z"/>
<path d="M20605 31950 c-3 -6 1 -7 9 -4 18 7 21 14 7 14 -6 0 -13 -4 -16 -10z"/>
<path d="M26820 31908 c-12 -22 -12 -22 6 -6 10 10 15 20 12 24 -4 3 -12 -5
-18 -18z"/>
<path d="M20529 31903 c-13 -17 -13 -17 6 -3 11 8 22 16 24 17 2 2 0 3 -6 3
-6 0 -17 -8 -24 -17z"/>
<path d="M20485 31870 c-3 -6 1 -7 9 -4 18 7 21 14 7 14 -6 0 -13 -4 -16 -10z"/>
<path d="M26777 31839 c-4 -16 -3 -18 9 -8 16 13 19 29 5 29 -5 0 -11 -9 -14
-21z"/>
<path d="M20369 31783 c-13 -17 -13 -17 6 -3 11 8 22 16 24 17 2 2 0 3 -6 3
-6 0 -17 -8 -24 -17z"/>
<path d="M26747 31793 c-4 -3 -7 -13 -7 -22 1 -13 3 -13 11 2 11 19 8 33 -4
20z"/>
<path d="M20325 31750 c-3 -6 1 -7 9 -4 18 7 21 14 7 14 -6 0 -13 -4 -16 -10z"/>
<path d="M26696 31705 c-3 -8 -1 -15 3 -15 5 0 11 7 15 15 3 8 1 15 -3 15 -5
0 -11 -7 -15 -15z"/>
<path d="M26656 31655 c-3 -8 -1 -15 3 -15 5 0 11 7 15 15 3 8 1 15 -3 15 -5
0 -11 -7 -15 -15z"/>
<path d="M20169 31623 c-13 -16 -12 -17 4 -4 16 13 21 21 13 21 -2 0 -10 -8
-17 -17z"/>
<path d="M26620 31598 c-12 -22 -12 -22 6 -6 10 10 15 20 12 24 -4 3 -12 -5
-18 -18z"/>
<path d="M26574 31538 l-19 -23 23 19 c12 11 22 21 22 23 0 8 -8 2 -26 -19z"/>
<path d="M26536 31495 c-3 -8 -1 -15 3 -15 5 0 11 7 15 15 3 8 1 15 -3 15 -5
0 -11 -7 -15 -15z"/>
<path d="M20009 31463 c-13 -16 -12 -17 4 -4 9 7 17 15 17 17 0 8 -8 3 -21
-13z"/>
<path d="M26506 31443 c-6 -14 -5 -15 5 -6 7 7 10 15 7 18 -3 3 -9 -2 -12 -12z"/>
<path d="M19960 31409 c0 -5 5 -7 10 -4 6 3 10 8 10 11 0 2 -4 4 -10 4 -5 0
-10 -5 -10 -11z"/>
<path d="M26435 31360 c-16 -16 -25 -30 -19 -29 8 0 60 59 52 59 -3 0 -17 -13
-33 -30z"/>
<path d="M26375 31299 c-11 -17 1 -21 15 -4 8 9 8 15 2 15 -6 0 -14 -5 -17
-11z"/>
<path d="M26340 31255 c-7 -9 -8 -15 -2 -15 5 0 12 7 16 15 3 8 4 15 2 15 -2
0 -9 -7 -16 -15z"/>
<path d="M26300 31209 c0 -5 5 -7 10 -4 6 3 10 8 10 11 0 2 -4 4 -10 4 -5 0
-10 -5 -10 -11z"/>
<path d="M19767 31193 c-4 -3 -7 -11 -7 -17 0 -6 5 -5 12 2 6 6 9 14 7 17 -3
3 -9 2 -12 -2z"/>
<path d="M19720 31129 c0 -5 5 -7 10 -4 6 3 10 8 10 11 0 2 -4 4 -10 4 -5 0
-10 -5 -10 -11z"/>
<path d="M26135 31050 c-3 -5 -2 -10 4 -10 5 0 13 5 16 10 3 6 2 10 -4 10 -5
0 -13 -4 -16 -10z"/>
<path d="M19640 31019 c0 -5 5 -7 10 -4 6 3 10 8 10 11 0 2 -4 4 -10 4 -5 0
-10 -5 -10 -11z"/>
<path d="M26097 31023 c-4 -3 -7 -11 -7 -17 0 -6 5 -5 12 2 6 6 9 14 7 17 -3
3 -9 2 -12 -2z"/>
<path d="M19609 30973 c-13 -16 -12 -17 4 -4 9 7 17 15 17 17 0 8 -8 3 -21
-13z"/>
<path d="M26049 30973 c-13 -16 -12 -17 4 -4 16 13 21 21 13 21 -2 0 -10 -8
-17 -17z"/>
<path d="M26009 30933 c-13 -16 -12 -17 4 -4 16 13 21 21 13 21 -2 0 -10 -8
-17 -17z"/>
<path d="M19566 30904 c-9 -24 -2 -26 12 -4 7 11 8 20 3 20 -5 0 -12 -7 -15
-16z"/>
<path d="M25925 30865 c-16 -14 -25 -25 -19 -25 6 0 21 11 34 25 30 32 24 31
-15 0z"/>
<path d="M25850 30810 c0 -5 7 -7 15 -4 8 4 15 8 15 10 0 2 -7 4 -15 4 -8 0
-15 -4 -15 -10z"/>
<path d="M19487 30783 c-4 -3 -7 -11 -7 -17 0 -6 5 -5 12 2 6 6 9 14 7 17 -3
3 -9 2 -12 -2z"/>
<path d="M25809 30773 c-13 -16 -12 -17 4 -4 16 13 21 21 13 21 -2 0 -10 -8
-17 -17z"/>
<path d="M25754 30735 c-10 -8 -14 -15 -8 -15 6 0 17 7 24 15 16 19 9 19 -16
0z"/>
<path d="M19450 30715 c-7 -9 -10 -18 -7 -21 3 -3 10 4 17 15 13 25 8 27 -10
6z"/>
<path d="M25695 30690 c-3 -5 -2 -10 4 -10 5 0 13 5 16 10 3 6 2 10 -4 10 -5
0 -13 -4 -16 -10z"/>
<path d="M25650 30655 c-11 -13 -10 -14 4 -9 9 3 16 10 16 15 0 13 -6 11 -20
-6z"/>
<path d="M19410 30635 c-7 -9 -10 -18 -7 -21 3 -3 10 4 17 15 13 25 8 27 -10
6z"/>
<path d="M25570 30610 c0 -5 4 -10 9 -10 6 0 13 5 16 10 3 6 -1 10 -9 10 -9 0
-16 -4 -16 -10z"/>
<path d="M25515 30570 c-3 -6 1 -7 9 -4 18 7 21 14 7 14 -6 0 -13 -4 -16 -10z"/>
<path d="M19370 30555 c-7 -9 -10 -18 -7 -21 3 -3 10 4 17 15 13 25 8 27 -10
6z"/>
<path d="M25445 30530 c-3 -5 -2 -10 4 -10 5 0 13 5 16 10 3 6 2 10 -4 10 -5
0 -13 -4 -16 -10z"/>
<path d="M25385 30490 c-3 -5 -2 -10 4 -10 5 0 13 5 16 10 3 6 2 10 -4 10 -5
0 -13 -4 -16 -10z"/>
<path d="M19330 30475 c-6 -8 -10 -19 -8 -26 2 -6 9 0 16 15 13 29 10 33 -8
11z"/>
<path d="M25320 30450 c-8 -5 -10 -10 -5 -10 6 0 17 5 25 10 8 5 11 10 5 10
-5 0 -17 -5 -25 -10z"/>
<path d="M25230 30410 c-8 -5 -10 -10 -5 -10 6 0 17 5 25 10 8 5 11 10 5 10
-5 0 -17 -5 -25 -10z"/>
<path d="M19290 30395 c-6 -8 -10 -19 -8 -26 2 -6 9 0 16 15 13 29 10 33 -8
11z"/>
<path d="M25140 30370 c-13 -9 -13 -10 0 -10 8 0 22 5 30 10 13 9 13 10 0 10
-8 0 -22 -5 -30 -10z"/>
<path d="M25055 30330 c-8 -13 5 -13 25 0 13 8 13 10 -2 10 -9 0 -20 -4 -23
-10z"/>
<path d="M24965 30290 c-8 -13 15 -13 35 0 12 8 11 10 -7 10 -12 0 -25 -4 -28
-10z"/>
<path d="M19245 30270 c-4 -12 -5 -24 -2 -27 3 -2 8 5 12 17 4 12 5 24 2 27
-3 2 -8 -5 -12 -17z"/>
<path d="M24860 30250 c-13 -9 -13 -10 0 -10 8 0 22 5 30 10 13 9 13 10 0 10
-8 0 -22 -5 -30 -10z"/>
<path d="M24750 30210 c-13 -9 -13 -10 0 -10 8 0 22 5 30 10 13 9 13 10 0 10
-8 0 -22 -5 -30 -10z"/>
<path d="M19205 30160 c-4 -12 -5 -24 -2 -27 3 -2 8 5 12 17 4 12 5 24 2 27
-3 2 -8 -5 -12 -17z"/>
<path d="M24640 30170 c-13 -9 -13 -10 0 -9 8 0 24 4 35 9 l20 9 -20 0 c-11 0
-27 -4 -35 -9z"/>
<path d="M24470 30130 c-12 -8 -10 -10 10 -9 14 0 34 4 45 9 17 7 16 9 -10 9
-16 0 -37 -4 -45 -9z"/>
<path d="M24305 30090 c-18 -8 -18 -9 5 -9 14 0 34 4 45 9 18 8 18 9 -5 9 -14
0 -34 -4 -45 -9z"/>
<path d="M19167 30046 c-4 -10 -7 -25 -6 -34 0 -11 4 -9 10 7 5 13 8 29 6 35
-2 5 -6 2 -10 -8z"/>
<path d="M24070 30050 c-11 -7 -8 -9 15 -9 17 1 41 5 55 9 22 7 20 8 -15 9
-22 0 -47 -4 -55 -9z"/>
<path d="M23685 30010 c-34 -6 -29 -7 30 -7 39 -1 99 3 135 7 64 7 63 7 -30 7
-52 0 -113 -3 -135 -7z"/>
<path d="M19125 29890 c-4 -17 -5 -34 -2 -36 2 -3 7 10 11 27 8 42 0 50 -9 9z"/>
<path d="M19092 29740 c0 -14 2 -19 5 -12 2 6 2 18 0 25 -3 6 -5 1 -5 -13z"/>
<path d="M19082 29680 c0 -19 2 -27 5 -17 2 9 2 25 0 35 -3 9 -5 1 -5 -18z"/>
<path d="M19046 29453 c-3 -21 -5 -58 -5 -83 1 -32 4 -22 10 34 9 84 6 113 -5
49z"/>
<path d="M69575 28790 c33 -4 85 -8 115 -7 l55 0 -60 7 c-33 4 -85 8 -115 7
l-55 0 60 -7z"/>
<path d="M19043 28730 c0 -25 2 -35 4 -22 2 12 2 32 0 45 -2 12 -4 2 -4 -23z"/>
<path d="M69915 28750 c17 -4 41 -8 55 -8 22 0 22 1 -5 8 -16 4 -41 8 -55 8
-22 0 -22 -1 5 -8z"/>
<path d="M70110 28710 c34 -11 60 -11 35 0 -11 5 -29 8 -40 8 -16 0 -15 -2 5
-8z"/>
<path d="M66363 28703 c26 -2 68 -2 95 0 26 2 4 3 -48 3 -52 0 -74 -1 -47 -3z"/>
<path d="M66218 28693 c7 -3 16 -2 19 1 4 3 -2 6 -13 5 -11 0 -14 -3 -6 -6z"/>
<path d="M66558 28693 c12 -2 30 -2 40 0 9 3 -1 5 -23 4 -22 0 -30 -2 -17 -4z"/>
<path d="M25867 28667 c-4 -10 -7 -35 -6 -55 l1 -37 9 40 c11 45 8 82 -4 52z"/>
<path d="M66028 28673 c6 -2 18 -2 25 0 6 3 1 5 -13 5 -14 0 -19 -2 -12 -5z"/>
<path d="M66775 28670 c17 -4 44 -8 60 -8 l30 0 -30 8 c-16 4 -43 8 -60 8
l-30 0 30 -8z"/>
<path d="M70260 28670 c8 -5 22 -10 30 -10 13 0 13 1 0 10 -8 5 -22 10 -30 10
-13 0 -13 -1 0 -10z"/>
<path d="M19051 28654 c0 -11 3 -14 6 -6 3 7 2 16 -1 19 -3 4 -6 -2 -5 -13z"/>
<path d="M65978 28663 c7 -3 16 -2 19 1 4 3 -2 6 -13 5 -11 0 -14 -3 -6 -6z"/>
<path d="M69385 25725 c0 -1622 1 -2285 2 -1472 2 813 2 2141 0 2950 -1 810
-2 145 -2 -1478z"/>
<path d="M66985 28630 c11 -5 27 -9 35 -9 9 0 8 4 -5 9 -11 5 -27 9 -35 9 -9
0 -8 -4 5 -9z"/>
<path d="M70385 28630 c27 -12 43 -12 25 0 -8 5 -22 9 -30 9 -10 0 -8 -3 5 -9z"/>
<path d="M65798 28623 c7 -3 16 -2 19 1 4 3 -2 6 -13 5 -11 0 -14 -3 -6 -6z"/>
<path d="M65670 28590 c-18 -12 -2 -12 25 0 13 6 15 9 5 9 -8 0 -22 -4 -30 -9z"/>
<path d="M67140 28585 c14 -7 27 -11 30 -9 6 7 -22 24 -40 23 -9 0 -5 -6 10
-14z"/>
<path d="M70500 28585 c14 -8 30 -14 35 -14 6 0 -1 6 -15 14 -14 8 -29 14 -35
14 -5 0 1 -6 15 -14z"/>
<path d="M65560 28550 c-8 -5 -10 -10 -5 -10 6 0 17 5 25 10 8 5 11 10 5 10
-5 0 -17 -5 -25 -10z"/>
<path d="M67241 28556 c2 -2 15 -9 29 -15 24 -11 24 -11 6 3 -16 13 -49 24
-35 12z"/>
<path d="M70570 28556 c0 -2 9 -6 20 -9 11 -3 18 -1 14 4 -5 9 -34 13 -34 5z"/>
<path d="M65449 28503 c-13 -15 -12 -15 11 -3 34 17 36 20 18 20 -9 0 -22 -7
-29 -17z"/>
<path d="M67367 28499 c7 -7 15 -10 18 -7 3 3 -2 9 -12 12 -14 6 -15 5 -6 -5z"/>
<path d="M19082 28455 c0 -16 4 -43 8 -60 11 -42 11 -1 1 50 -7 34 -9 35 -9
10z"/>
<path d="M65364 28465 c-10 -8 -14 -14 -9 -14 6 0 19 6 29 14 11 8 15 15 10
15 -6 0 -19 -7 -30 -15z"/>
<path d="M25827 28437 c-4 -10 -7 -33 -6 -50 l1 -32 9 33 c12 40 8 79 -4 49z"/>
<path d="M65284 28425 c-10 -8 -14 -14 -9 -14 6 0 19 6 29 14 11 8 15 15 10
15 -6 0 -19 -7 -30 -15z"/>
<path d="M65214 28384 c-18 -14 -18 -15 4 -4 12 6 22 13 22 15 0 8 -5 6 -26
-11z"/>
<path d="M65146 28345 c-11 -8 -16 -15 -10 -15 5 0 18 7 28 15 11 8 16 15 10
15 -5 0 -18 -7 -28 -15z"/>
<path d="M70961 28357 c2 -1 13 -9 24 -17 19 -14 19 -14 6 3 -7 9 -18 17 -24
17 -6 0 -8 -1 -6 -3z"/>
<path d="M65089 28303 c-13 -16 -12 -17 4 -4 16 13 21 21 13 21 -2 0 -10 -8
-17 -17z"/>
<path d="M67720 28316 c0 -2 8 -10 18 -17 15 -13 16 -12 3 4 -13 16 -21 21
-21 13z"/>
<path d="M19121 28269 c-1 -9 6 -32 14 -50 18 -43 18 -16 0 31 -7 19 -14 28
-14 19z"/>
<path d="M65029 28263 c-13 -16 -12 -17 4 -4 16 13 21 21 13 21 -2 0 -10 -8
-17 -17z"/>
<path d="M71081 28277 c2 -1 13 -9 24 -17 19 -14 19 -14 6 3 -7 9 -18 17 -24
17 -6 0 -8 -1 -6 -3z"/>
<path d="M25787 28257 c-4 -10 -7 -28 -6 -40 0 -21 1 -21 10 2 5 14 8 32 7 40
-3 13 -5 13 -11 -2z"/>
<path d="M64957 28214 c-48 -37 -61 -53 -29 -34 22 13 88 70 81 70 -3 0 -27
-16 -52 -36z"/>
<path d="M67932 28150 c7 -11 17 -20 22 -20 5 0 1 9 -9 20 -10 11 -20 20 -22
20 -2 0 2 -9 9 -20z"/>
<path d="M71255 28151 c19 -23 75 -66 75 -59 0 2 -21 21 -47 43 -27 21 -39 28
-28 16z"/>
<path d="M19161 28125 c0 -11 4 -29 9 -40 l9 -20 0 20 c0 11 -4 29 -9 40 l-9
20 0 -20z"/>
<path d="M67975 28110 c3 -5 8 -10 11 -10 2 0 4 5 4 10 0 6 -5 10 -11 10 -5 0
-7 -4 -4 -10z"/>
<path d="M25747 28093 c-15 -55 -18 -77 -8 -68 11 11 26 85 18 85 -3 0 -8 -8
-10 -17z"/>
<path d="M64735 28018 l-70 -73 73 70 c67 64 77 75 69 75 -1 0 -34 -33 -72
-72z"/>
<path d="M19201 27995 c0 -11 6 -31 14 -45 18 -31 18 -16 0 30 -9 23 -14 28
-14 15z"/>
<path d="M71446 27987 c3 -10 9 -15 12 -12 3 3 0 11 -7 18 -10 9 -11 8 -5 -6z"/>
<path d="M25708 27975 c-3 -6 -8 -23 -12 -40 l-6 -30 16 28 c8 16 14 33 11 40
-2 6 -6 7 -9 2z"/>
<path d="M71506 27928 c20 -24 45 -47 53 -52 9 -5 -6 14 -34 43 -60 62 -72 67
-19 9z"/>
<path d="M68180 27914 c1 -5 26 -36 57 -69 62 -67 51 -45 -14 30 -24 26 -43
44 -43 39z"/>
<path d="M19241 27890 c0 -8 6 -28 14 -45 17 -39 18 -21 0 25 -7 19 -14 28
-14 20z"/>
<path d="M25670 27877 c0 -1 -4 -18 -10 -36 -5 -20 -6 -31 -1 -25 12 11 25 64
17 64 -3 0 -6 -1 -6 -3z"/>
<path d="M71570 27855 c0 -2 10 -10 23 -16 20 -11 21 -11 8 4 -13 16 -31 23
-31 12z"/>
<path d="M71610 27816 c0 -2 8 -10 18 -17 15 -13 16 -12 3 4 -13 16 -21 21
-21 13z"/>
<path d="M64519 27773 c-13 -16 -12 -17 4 -4 9 7 17 15 17 17 0 8 -8 3 -21
-13z"/>
<path d="M19280 27770 c0 -17 141 -302 146 -297 3 2 -29 73 -71 157 -41 84
-75 147 -75 140z"/>
<path d="M25625 27755 c-16 -49 -16 -51 0 -31 15 19 20 46 10 46 -3 0 -8 -7
-10 -15z"/>
<path d="M68300 27766 c0 -2 8 -10 18 -17 15 -13 16 -12 3 4 -13 16 -21 21
-21 13z"/>
<path d="M71688 27730 c17 -25 52 -67 77 -95 32 -34 25 -23 -20 35 -80 101
-100 122 -57 60z"/>
<path d="M68340 27715 c0 -5 14 -26 31 -45 17 -19 26 -26 20 -15 -16 31 -51
71 -51 60z"/>
<path d="M25580 27660 c-6 -11 -9 -26 -7 -33 3 -7 10 1 16 17 14 35 7 47 -9
16z"/>
<path d="M64409 27623 c-13 -16 -12 -17 4 -4 16 13 21 21 13 21 -2 0 -10 -8
-17 -17z"/>
<path d="M25542 27575 c-7 -15 -11 -30 -8 -32 7 -7 28 36 24 49 -2 6 -9 -2
-16 -17z"/>
<path d="M68420 27594 c0 -5 7 -19 15 -30 8 -10 15 -14 15 -8 0 5 -7 19 -15
30 -8 10 -15 14 -15 8z"/>
<path d="M64365 27549 c-4 -6 -5 -12 -2 -15 2 -3 7 2 10 11 7 17 1 20 -8 4z"/>
<path d="M71859 27503 c12 -24 31 -39 31 -25 0 5 -10 17 -21 28 -22 19 -22 19
-10 -3z"/>
<path d="M25500 27486 c-15 -39 -12 -46 6 -13 9 16 13 31 10 34 -3 3 -10 -6
-16 -21z"/>
<path d="M68500 27462 c6 -13 14 -21 18 -18 3 4 -2 14 -12 24 -18 16 -18 16
-6 -6z"/>
<path d="M19445 27430 c9 -16 18 -30 21 -30 2 0 -2 14 -11 30 -9 17 -18 30
-21 30 -2 0 2 -13 11 -30z"/>
<path d="M25463 27413 c-3 -10 -8 -22 -10 -28 -3 -5 3 -1 11 9 16 20 21 36 11
36 -3 0 -8 -8 -12 -17z"/>
<path d="M71939 27382 c6 -12 16 -24 22 -28 8 -4 8 -1 0 14 -6 12 -16 24 -22
28 -8 4 -8 1 0 -14z"/>
<path d="M19477 27370 c3 -10 12 -25 21 -32 13 -11 12 -8 -2 20 -19 36 -27 41
-19 12z"/>
<path d="M68540 27381 c0 -5 5 -13 10 -16 6 -3 10 -2 10 4 0 5 -4 13 -10 16
-5 3 -10 2 -10 -4z"/>
<path d="M25424 27345 c-9 -14 -14 -28 -11 -31 3 -3 13 8 22 25 19 37 12 41
-11 6z"/>
<path d="M71977 27320 c3 -10 12 -25 21 -32 13 -11 12 -8 -2 20 -19 36 -27 41
-19 12z"/>
<path d="M19520 27300 c6 -11 13 -20 16 -20 2 0 0 9 -6 20 -6 11 -13 20 -16
20 -2 0 0 -9 6 -20z"/>
<path d="M68580 27300 c6 -11 13 -20 16 -20 2 0 0 9 -6 20 -6 11 -13 20 -16
20 -2 0 0 -9 6 -20z"/>
<path d="M25385 27274 c-9 -14 -14 -28 -12 -31 3 -3 13 9 22 26 19 38 14 41
-10 5z"/>
<path d="M64206 27245 c-9 -26 -7 -32 5 -12 6 10 9 21 6 23 -2 3 -7 -2 -11
-11z"/>
<path d="M72020 27251 c0 -6 4 -13 10 -16 6 -3 7 1 4 9 -7 18 -14 21 -14 7z"/>
<path d="M19560 27234 c0 -6 7 -19 15 -30 8 -10 14 -14 14 -9 0 6 -6 19 -14
29 -8 11 -15 15 -15 10z"/>
<path d="M25322 27170 c-17 -27 -28 -50 -24 -50 9 1 64 91 59 96 -2 2 -18 -18
-35 -46z"/>
<path d="M68621 27210 c0 -8 4 -22 9 -30 12 -18 12 -2 0 25 -6 13 -9 15 -9 5z"/>
<path d="M72061 27180 c14 -31 19 -36 19 -24 0 6 -7 19 -16 30 -14 18 -14 18
-3 -6z"/>
<path d="M19596 27170 c40 -67 57 -90 66 -90 5 0 -5 19 -23 43 -38 49 -56 69
-43 47z"/>
<path d="M64170 27149 c-7 -11 -10 -23 -7 -25 2 -2 9 7 15 21 14 30 7 33 -8 4z"/>
<path d="M68656 27110 c3 -14 10 -29 15 -34 14 -16 10 6 -7 34 l-15 25 7 -25z"/>
<path d="M72101 27100 c14 -31 19 -36 19 -24 0 6 -7 19 -16 30 -14 18 -14 18
-3 -6z"/>
<path d="M25270 27090 c-6 -11 -8 -20 -6 -20 3 0 10 9 16 20 6 11 8 20 6 20
-3 0 -10 -9 -16 -20z"/>
<path d="M19670 27069 c0 -3 14 -23 30 -44 17 -21 30 -34 30 -29 -1 10 -59 82
-60 73z"/>
<path d="M25217 27027 c-50 -62 -77 -101 -77 -111 0 -6 7 -2 15 9 8 11 23 30
32 43 9 13 25 33 35 44 10 12 18 25 18 30 0 12 -3 10 -23 -15z"/>
<path d="M72140 27011 c0 -6 4 -13 10 -16 6 -3 7 1 4 9 -7 18 -14 21 -14 7z"/>
<path d="M68697 26980 c3 -19 10 -39 14 -44 14 -15 10 15 -6 49 l-14 30 6 -35z"/>
<path d="M19784 26918 c16 -21 30 -38 33 -38 8 0 -16 36 -38 55 -19 16 -18 13
5 -17z"/>
<path d="M72181 26913 c11 -34 19 -42 19 -20 0 7 -7 22 -15 33 -13 17 -14 16
-4 -13z"/>
<path d="M25113 26886 c-4 -7 -36 -44 -70 -82 -35 -38 -63 -73 -63 -78 0 -6 3
-6 8 0 59 65 142 165 142 169 0 10 -9 5 -17 -9z"/>
<path d="M64085 26870 c-4 -17 -5 -34 -2 -36 2 -3 7 10 11 27 8 42 0 50 -9 9z"/>
<path d="M68736 26820 c3 -25 10 -49 15 -55 11 -11 1 48 -13 80 -5 13 -6 4 -2
-25z"/>
<path d="M72217 26816 c3 -15 10 -29 15 -32 6 -4 7 2 3 17 -10 35 -23 45 -18
15z"/>
<path d="M19871 26813 c7 -12 15 -20 18 -17 3 2 -3 12 -13 22 -17 16 -18 16
-5 -5z"/>
<path d="M19900 26776 c0 -2 8 -10 18 -17 15 -13 16 -12 3 4 -13 16 -21 21
-21 13z"/>
<path d="M72256 26710 c3 -14 11 -32 16 -40 6 -10 7 -7 2 10 -3 14 -11 32 -16
40 -6 10 -7 7 -2 -10z"/>
<path d="M19990 26675 c19 -19 36 -35 39 -35 3 0 -10 16 -29 35 -19 19 -36 35
-39 35 -3 0 10 -16 29 -35z"/>
<path d="M64045 26655 c-3 -31 -5 -59 -2 -61 3 -3 8 20 12 51 3 31 5 59 2 61
-3 3 -8 -20 -12 -51z"/>
<path d="M20040 26626 c0 -2 8 -10 18 -17 15 -13 16 -12 3 4 -13 16 -21 21
-21 13z"/>
<path d="M68771 26614 c0 -11 3 -14 6 -6 3 7 2 16 -1 19 -3 4 -6 -2 -5 -13z"/>
<path d="M72296 26570 c4 -19 10 -42 15 -50 15 -27 10 22 -6 55 l-15 30 6 -35z"/>
<path d="M68785 26315 c0 -154 3 -248 6 -210 8 89 8 329 0 420 -3 39 -6 -56
-6 -210z"/>
<path d="M24820 26570 c-9 -6 -10 -10 -3 -10 6 0 15 5 18 10 8 12 4 12 -15 0z"/>
<path d="M24779 26533 c-13 -16 -12 -17 4 -4 16 13 21 21 13 21 -2 0 -10 -8
-17 -17z"/>
<path d="M24713 26475 c-21 -19 -33 -35 -27 -35 5 0 25 16 44 35 44 45 32 45
-17 0z"/>
<path d="M72336 26410 c3 -25 10 -52 15 -60 11 -18 0 55 -12 85 -6 13 -7 4 -3
-25z"/>
<path d="M24645 26410 c-3 -6 1 -7 9 -4 18 7 21 14 7 14 -6 0 -13 -4 -16 -10z"/>
<path d="M24590 26370 c-13 -8 -13 -10 2 -10 9 0 20 5 23 10 8 13 -5 13 -25 0z"/>
<path d="M20331 26367 c2 -1 13 -9 24 -17 19 -14 19 -14 6 3 -7 9 -18 17 -24
17 -6 0 -8 -1 -6 -3z"/>
<path d="M24529 26323 c-13 -15 -12 -15 9 -4 23 12 28 21 13 21 -5 0 -15 -7
-22 -17z"/>
<path d="M24485 26290 c-3 -5 -2 -10 4 -10 5 0 13 5 16 10 3 6 2 10 -4 10 -5
0 -13 -4 -16 -10z"/>
<path d="M24430 26250 c-9 -6 -10 -10 -3 -10 6 0 15 5 18 10 8 12 4 12 -15 0z"/>
<path d="M24370 26210 c-13 -8 -13 -10 2 -10 9 0 20 5 23 10 8 13 -5 13 -25 0z"/>
<path d="M72377 26155 c9 -113 23 -165 17 -62 -3 49 -9 98 -14 110 -5 14 -7
-4 -3 -48z"/>
<path d="M20550 26206 c0 -2 7 -7 16 -10 8 -3 12 -2 9 4 -6 10 -25 14 -25 6z"/>
<path d="M24310 26170 c-8 -5 -10 -10 -5 -10 6 0 17 5 25 10 8 5 11 10 5 10
-5 0 -17 -5 -25 -10z"/>
<path d="M20670 26130 c0 -5 5 -10 11 -10 5 0 7 5 4 10 -3 6 -8 10 -11 10 -2
0 -4 -4 -4 -10z"/>
<path d="M24240 26130 c-13 -8 -13 -10 2 -10 9 0 20 5 23 10 8 13 -5 13 -25 0z"/>
<path d="M24180 26095 c-17 -10 -20 -14 -9 -15 9 0 22 7 29 15 15 18 12 18
-20 0z"/>
<path d="M20737 26089 c7 -7 15 -10 18 -7 3 3 -2 9 -12 12 -14 6 -15 5 -6 -5z"/>
<path d="M24110 26050 c-13 -8 -13 -10 2 -10 9 0 20 5 23 10 8 13 -5 13 -25 0z"/>
<path d="M64042 26020 c0 -19 2 -27 5 -17 2 9 2 25 0 35 -3 9 -5 1 -5 -18z"/>
<path d="M24018 26003 c7 -3 16 -2 19 1 4 3 -2 6 -13 5 -11 0 -14 -3 -6 -6z"/>
<path d="M20960 25970 c8 -5 22 -10 30 -10 13 0 13 1 0 10 -8 5 -22 10 -30 10
-13 0 -13 -1 0 -10z"/>
<path d="M23945 25970 c-13 -6 -15 -9 -5 -9 8 0 22 4 30 9 18 12 2 12 -25 0z"/>
<path d="M64052 25955 c0 -16 2 -22 5 -12 2 9 2 23 0 30 -3 6 -5 -1 -5 -18z"/>
<path d="M21040 25936 c0 -2 7 -7 16 -10 8 -3 12 -2 9 4 -6 10 -25 14 -25 6z"/>
<path d="M23850 25930 c-12 -8 -11 -10 7 -10 12 0 25 5 28 10 8 13 -15 13 -35
0z"/>
<path d="M23775 25895 c-23 -10 -25 -14 -10 -14 21 -1 52 15 45 23 -3 2 -18
-2 -35 -9z"/>
<path d="M21135 25890 c11 -5 27 -9 35 -9 9 0 8 4 -5 9 -11 5 -27 9 -35 9 -9
0 -8 -4 5 -9z"/>
<path d="M68744 25856 c-3 -21 -4 -39 -1 -42 3 -4 9 10 13 30 3 21 4 39 1 42
-3 4 -9 -10 -13 -30z"/>
<path d="M72403 25790 c0 -47 2 -66 4 -42 2 23 2 61 0 85 -2 23 -4 4 -4 -43z"/>
<path d="M23655 25850 l-20 -9 20 0 c11 0 27 4 35 9 13 9 13 10 0 9 -8 0 -24
-4 -35 -9z"/>
<path d="M23555 25810 l-20 -9 20 0 c11 0 27 4 35 9 13 9 13 10 0 9 -8 0 -24
-4 -35 -9z"/>
<path d="M64086 25775 c3 -22 10 -47 15 -55 11 -18 0 46 -13 75 -5 13 -6 7 -2
-20z"/>
<path d="M23425 25770 l-20 -9 20 1 c11 0 31 4 45 8 l25 8 -25 0 c-14 0 -34
-3 -45 -8z"/>
<path d="M21598 25733 c7 -3 16 -2 19 1 4 3 -2 6 -13 5 -11 0 -14 -3 -6 -6z"/>
<path d="M23270 25730 c-24 -8 -24 -8 5 -8 17 0 39 3 50 8 18 8 18 9 -5 8 -14
0 -36 -4 -50 -8z"/>
<path d="M68707 25696 c-4 -10 -7 -25 -6 -34 0 -11 4 -9 10 7 5 13 8 29 6 35
-2 5 -6 2 -10 -8z"/>
<path d="M21773 25693 c9 -2 23 -2 30 0 6 3 -1 5 -18 5 -16 0 -22 -2 -12 -5z"/>
<path d="M23080 25690 l-35 -7 35 -1 c19 0 49 4 65 8 l30 8 -30 0 c-16 -1 -46
-4 -65 -8z"/>
<path d="M22065 25650 c69 -11 126 -10 65 1 -25 4 -61 7 -80 7 -29 -1 -26 -2
15 -8z"/>
<path d="M22755 25650 l-40 -7 50 -1 c28 0 70 3 95 7 l45 8 -55 0 c-30 0 -73
-3 -95 -7z"/>
<path d="M64121 25640 c0 -8 6 -28 14 -45 17 -39 18 -21 0 25 -7 19 -14 28
-14 20z"/>
<path d="M68662 25551 c-7 -19 -10 -36 -7 -39 6 -7 26 49 22 62 -2 6 -9 -5
-15 -23z"/>
<path d="M72385 25483 c-15 -165 -15 -171 -5 -133 11 44 25 200 17 200 -3 0
-8 -30 -12 -67z"/>
<path d="M64161 25520 c0 -8 6 -26 15 -40 l15 -25 -7 25 c-3 14 -10 32 -15 40
-7 13 -8 13 -8 0z"/>
<path d="M68621 25439 c-14 -42 -7 -49 9 -9 7 17 10 33 8 36 -3 3 -11 -9 -17
-27z"/>
<path d="M64201 25420 c0 -14 28 -72 29 -59 0 4 -7 22 -15 40 -8 19 -14 27
-14 19z"/>
<path d="M68581 25344 c-6 -15 -9 -29 -7 -32 3 -2 10 8 16 23 14 36 7 43 -9 9z"/>
<path d="M64240 25324 c0 -6 7 -19 16 -30 14 -18 14 -18 3 6 -14 31 -19 36
-19 24z"/>
<path d="M68542 25265 c-7 -15 -11 -30 -8 -32 7 -7 28 36 24 49 -2 6 -9 -2
-16 -17z"/>
<path d="M64280 25238 c0 -9 7 -22 17 -29 15 -13 15 -12 3 11 -17 34 -20 36
-20 18z"/>
<path d="M72347 25217 c-9 -23 -20 -107 -14 -107 7 0 30 110 24 116 -2 3 -7
-2 -10 -9z"/>
<path d="M68501 25184 c-12 -27 -11 -28 4 -12 10 9 16 21 13 28 -2 7 -10 -1
-17 -16z"/>
<path d="M64320 25169 c0 -8 9 -25 20 -39 11 -14 20 -30 20 -36 0 -6 8 -18 17
-25 10 -8 3 11 -17 46 -40 72 -40 72 -40 54z"/>
<path d="M68445 25090 c-28 -44 -47 -91 -23 -56 41 59 58 89 54 93 -2 3 -16
-14 -31 -37z"/>
<path d="M64399 25032 c6 -12 16 -24 22 -28 8 -4 8 -1 0 14 -6 12 -16 24 -22
28 -8 4 -8 1 0 -14z"/>
<path d="M72308 25035 c-4 -11 -9 -36 -12 -55 l-6 -35 15 40 c9 22 14 46 12
55 -2 11 -5 10 -9 -5z"/>
<path d="M68367 24968 c-16 -22 -27 -42 -25 -44 6 -5 60 66 56 75 -2 5 -16 -9
-31 -31z"/>
<path d="M64439 24972 c6 -12 16 -24 22 -28 8 -4 8 -1 0 14 -6 12 -16 24 -22
28 -8 4 -8 1 0 -14z"/>
<path d="M64475 24919 c24 -40 139 -174 213 -249 l85 -85 -96 105 c-53 58
-117 133 -141 167 -41 56 -82 98 -61 62z"/>
<path d="M68281 24850 c-55 -62 -75 -90 -64 -90 12 1 122 140 111 140 -2 0
-23 -23 -47 -50z"/>
<path d="M72267 24893 c-11 -20 -18 -67 -8 -58 11 11 26 65 18 65 -3 0 -8 -3
-10 -7z"/>
<path d="M72221 24749 c-14 -42 -7 -49 9 -9 7 17 10 33 8 36 -3 3 -11 -9 -17
-27z"/>
<path d="M68187 24743 c-4 -3 -7 -11 -7 -17 0 -6 5 -5 12 2 6 6 9 14 7 17 -3
3 -9 2 -12 -2z"/>
<path d="M68147 24693 c-4 -3 -7 -11 -7 -17 0 -6 5 -5 12 2 6 6 9 14 7 17 -3
3 -9 2 -12 -2z"/>
<path d="M72181 24649 c-14 -42 -7 -49 9 -9 7 17 10 33 8 36 -3 3 -11 -9 -17
-27z"/>
<path d="M68105 24649 c-11 -17 1 -21 15 -4 8 9 8 15 2 15 -6 0 -14 -5 -17
-11z"/>
<path d="M68060 24605 c-7 -8 -8 -15 -2 -15 5 0 15 7 22 15 7 8 8 15 2 15 -5
0 -15 -7 -22 -15z"/>
<path d="M64787 24569 c7 -7 15 -10 18 -7 3 3 -2 9 -12 12 -14 6 -15 5 -6 -5z"/>
<path d="M67984 24537 c-28 -24 -68 -59 -89 -79 -21 -20 -60 -49 -86 -64 -27
-16 -49 -33 -49 -37 0 -5 6 -5 13 -1 50 31 102 70 153 116 33 29 72 63 88 76
16 12 27 24 25 26 -2 3 -27 -14 -55 -37z"/>
<path d="M72141 24548 c-10 -30 -9 -31 4 -14 8 11 15 26 15 33 0 22 -8 14 -19
-19z"/>
<path d="M64820 24542 c0 -5 19 -24 43 -42 l42 -33 -40 41 c-41 44 -45 47 -45
34z"/>
<path d="M72102 24466 c-17 -37 -15 -45 4 -18 8 12 14 27 12 33 -2 6 -9 -1
-16 -15z"/>
<path d="M64922 24454 c10 -10 20 -16 22 -13 3 3 -5 11 -17 18 -21 13 -21 12
-5 -5z"/>
<path d="M64972 24414 c10 -10 20 -16 22 -13 3 3 -5 11 -17 18 -21 13 -21 12
-5 -5z"/>
<path d="M72061 24384 c-12 -27 -11 -28 4 -12 10 9 16 21 13 28 -2 7 -10 -1
-17 -16z"/>
<path d="M65026 24375 c4 -8 11 -15 16 -15 6 0 5 6 -2 15 -7 8 -14 15 -16 15
-2 0 -1 -7 2 -15z"/>
<path d="M65070 24346 c0 -3 9 -10 20 -16 11 -6 20 -8 20 -6 0 3 -9 10 -20 16
-11 6 -20 8 -20 6z"/>
<path d="M67735 24340 c-3 -5 -1 -10 4 -10 6 0 11 5 11 10 0 6 -2 10 -4 10 -3
0 -8 -4 -11 -10z"/>
<path d="M72020 24310 c-6 -12 -9 -24 -7 -27 3 -2 11 5 17 17 6 12 9 24 7 27
-3 2 -11 -5 -17 -17z"/>
<path d="M67664 24300 c-12 -5 -25 -14 -29 -20 -4 -6 -18 -16 -32 -21 -14 -5
-23 -12 -20 -15 6 -6 94 42 103 57 6 10 6 10 -22 -1z"/>
<path d="M65150 24290 c0 -5 5 -10 11 -10 5 0 7 5 4 10 -3 6 -8 10 -11 10 -2
0 -4 -4 -4 -10z"/>
<path d="M65212 24255 c9 -10 21 -16 28 -13 7 2 -1 10 -16 17 -27 12 -28 11
-12 -4z"/>
<path d="M71969 24223 c-13 -21 -27 -44 -32 -50 -4 -7 -4 -13 0 -13 10 1 66
91 60 97 -3 2 -15 -13 -28 -34z"/>
<path d="M3450 24230 c-20 -6 -21 -8 -5 -8 11 0 34 4 50 8 27 7 27 8 5 8 -14
0 -36 -4 -50 -8z"/>
<path d="M4195 24230 c17 -4 46 -8 65 -8 32 0 33 1 10 8 -14 4 -43 8 -65 8
-38 0 -39 -1 -10 -8z"/>
<path d="M67535 24220 c-16 -11 -25 -20 -19 -20 11 0 64 39 54 40 -3 0 -18 -9
-35 -20z"/>
<path d="M65280 24221 c0 -9 30 -24 36 -18 2 1 -6 8 -16 15 -11 7 -20 8 -20 3z"/>
<path d="M3265 24190 c-13 -5 -14 -9 -5 -9 8 0 24 4 35 9 13 5 14 9 5 9 -8 0
-24 -4 -35 -9z"/>
<path d="M4405 24190 c11 -5 29 -9 40 -9 l20 0 -20 9 c-11 5 -29 9 -40 9 l-20
0 20 -9z"/>
<path d="M67450 24175 c-17 -10 -20 -14 -9 -15 9 0 22 7 29 15 15 18 12 18
-20 0z"/>
<path d="M65365 24170 c3 -5 14 -10 23 -10 15 0 15 2 2 10 -20 13 -33 13 -25
0z"/>
<path d="M3130 24150 c-8 -5 -10 -10 -5 -10 6 0 17 5 25 10 8 5 11 10 5 10 -5
0 -17 -5 -25 -10z"/>
<path d="M4555 24150 c11 -5 27 -9 35 -9 13 -1 13 0 0 9 -8 5 -24 9 -35 9
l-20 0 20 -9z"/>
<path d="M65440 24140 c0 -9 39 -25 46 -18 2 3 -7 10 -21 16 -14 6 -25 7 -25
2z"/>
<path d="M67353 24135 c-18 -8 -33 -17 -33 -20 0 -5 70 21 79 30 9 9 -14 4
-46 -10z"/>
<path d="M71890 24098 c-33 -40 -43 -58 -33 -58 9 1 66 80 61 85 -2 2 -15 -10
-28 -27z"/>
<path d="M3015 24110 c-13 -6 -15 -9 -5 -9 8 0 22 4 30 9 18 12 2 12 -25 0z"/>
<path d="M4675 24110 c27 -12 43 -12 25 0 -8 5 -22 9 -30 9 -10 0 -8 -3 5 -9z"/>
<path d="M67260 24098 c-14 -6 -20 -12 -13 -15 6 -2 24 3 40 11 32 17 11 20
-27 4z"/>
<path d="M65550 24090 c8 -5 22 -9 30 -9 10 0 8 3 -5 9 -27 12 -43 12 -25 0z"/>
<path d="M2910 24070 c-8 -5 -10 -10 -5 -10 6 0 17 5 25 10 8 5 11 10 5 10 -5
0 -17 -5 -25 -10z"/>
<path d="M4780 24073 c8 -3 24 -10 35 -15 20 -9 20 -9 1 6 -11 9 -27 16 -35
15 -14 0 -14 -1 -1 -6z"/>
<path d="M67145 24055 c-23 -10 -25 -13 -10 -14 11 0 31 6 45 14 32 18 5 19
-35 0z"/>
<path d="M65648 24053 c7 -3 16 -2 19 1 4 3 -2 6 -13 5 -11 0 -14 -3 -6 -6z"/>
<path d="M2830 24030 c-8 -5 -10 -10 -5 -10 6 0 17 5 25 10 8 5 11 10 5 10 -5
0 -17 -5 -25 -10z"/>
<path d="M4861 24036 c2 -2 15 -9 29 -15 24 -11 24 -11 6 3 -16 13 -49 24 -35
12z"/>
<path d="M65766 24020 c6 -6 28 -13 50 -15 21 -2 30 -2 19 1 -11 3 -33 10 -50
15 -21 7 -26 6 -19 -1z"/>
<path d="M66996 24014 c-26 -9 -46 -17 -44 -19 5 -5 108 21 116 29 9 10 -20 5
-72 -10z"/>
<path d="M71783 23952 c-29 -37 -50 -69 -47 -71 5 -6 37 31 80 92 45 63 22 49
-33 -21z"/>
<path d="M2734 23984 c-18 -14 -18 -14 6 -3 31 14 36 19 24 19 -6 0 -19 -7
-30 -16z"/>
<path d="M4951 23996 c2 -2 15 -9 29 -15 24 -11 24 -11 6 3 -16 13 -49 24 -35
12z"/>
<path d="M65930 23981 c8 -5 35 -12 60 -15 29 -4 38 -3 25 3 -30 12 -103 23
-85 12z"/>
<path d="M66832 23980 c-29 -4 -56 -11 -60 -15 -9 -10 91 3 121 15 26 10 11
10 -61 0z"/>
<path d="M2675 23950 c-3 -6 1 -7 9 -4 18 7 21 14 7 14 -6 0 -13 -4 -16 -10z"/>
<path d="M5020 23956 c0 -2 7 -7 16 -10 8 -3 12 -2 9 4 -6 10 -25 14 -25 6z"/>
<path d="M66410 23940 l-175 -6 165 -1 c91 -1 185 2 210 6 52 10 66 10 -200 1z"/>
<path d="M2605 23910 c-3 -5 -2 -10 4 -10 5 0 13 5 16 10 3 6 2 10 -4 10 -5 0
-13 -4 -16 -10z"/>
<path d="M5080 23916 c0 -2 7 -7 16 -10 8 -3 12 -2 9 4 -6 10 -25 14 -25 6z"/>
<path d="M5140 23887 c0 -3 12 -12 26 -22 15 -9 23 -12 20 -6 -7 11 -46 35
-46 28z"/>
<path d="M2511 23849 c-56 -37 -65 -46 -26 -26 31 17 84 57 75 57 -3 0 -25
-14 -49 -31z"/>
<path d="M71707 23853 c-4 -3 -7 -11 -7 -17 0 -6 5 -5 12 2 6 6 9 14 7 17 -3
3 -9 2 -12 -2z"/>
<path d="M5200 23841 c0 -5 7 -11 15 -15 8 -3 15 -1 15 3 0 5 -7 11 -15 15 -8
3 -15 1 -15 -3z"/>
<path d="M71538 23669 c-82 -82 -148 -153 -148 -157 0 -9 211 201 262 261 22
26 38 47 36 47 -1 -1 -69 -68 -150 -151z"/>
<path d="M5271 23797 c2 -1 13 -9 24 -17 19 -14 19 -14 6 3 -7 9 -18 17 -24
17 -6 0 -8 -1 -6 -3z"/>
<path d="M2359 23739 l-34 -30 35 23 c19 13 37 24 39 25 2 2 2 5 0 8 -3 2 -21
-9 -40 -26z"/>
<path d="M5336 23745 c10 -8 24 -14 29 -14 6 0 1 6 -9 14 -11 8 -24 15 -30 15
-5 0 -1 -7 10 -15z"/>
<path d="M5410 23696 c0 -2 8 -10 18 -17 15 -13 16 -12 3 4 -13 16 -21 21 -21
13z"/>
<path d="M5505 23600 c33 -33 62 -60 64 -60 3 0 -21 27 -54 60 -33 33 -62 60
-64 60 -3 0 21 -27 54 -60z"/>
<path d="M71356 23495 c-11 -8 -17 -17 -14 -20 2 -3 13 4 23 15 21 23 18 25
-9 5z"/>
<path d="M5620 23476 c0 -2 8 -10 18 -17 15 -13 16 -12 3 4 -13 16 -21 21 -21
13z"/>
<path d="M71283 23437 c-42 -32 -59 -57 -25 -37 30 17 76 59 71 64 -2 3 -23
-10 -46 -27z"/>
<path d="M5671 23414 c14 -16 36 -40 48 -54 24 -27 98 -125 118 -156 6 -11 12
-14 12 -7 1 15 -175 237 -192 242 -7 2 0 -9 14 -25z"/>
<path d="M71200 23370 c-8 -5 -12 -11 -9 -14 3 -3 14 1 25 9 21 16 8 20 -16 5z"/>
<path d="M1952 23321 c-18 -22 -32 -43 -32 -46 0 -6 21 18 59 68 27 35 3 16
-27 -22z"/>
<path d="M71130 23319 c-45 -30 -71 -61 -34 -41 22 12 91 71 84 71 -3 1 -25
-13 -50 -30z"/>
<path d="M73113 23255 c0 -22 2 -30 4 -17 2 12 2 30 0 40 -3 9 -5 -1 -4 -23z"/>
<path d="M66195 23271 c-42 -3 23 -6 165 -7 129 0 262 -3 295 -7 47 -5 52 -4
25 3 -44 12 -392 20 -485 11z"/>
<path d="M71040 23255 c-17 -10 -20 -14 -9 -15 9 0 22 7 29 15 15 18 12 18
-20 0z"/>
<path d="M66088 23253 c7 -3 16 -2 19 1 4 3 -2 6 -13 5 -11 0 -14 -3 -6 -6z"/>
<path d="M1890 23235 c-7 -9 -10 -18 -7 -21 3 -3 10 4 17 15 13 25 8 27 -10 6z"/>
<path d="M66780 23240 c0 -4 21 -11 48 -14 26 -4 61 -9 77 -13 17 -3 27 -2 24
1 -10 10 -149 34 -149 26z"/>
<path d="M65915 23230 c-27 -7 -27 -8 -5 -8 14 0 39 4 55 8 27 7 27 8 5 8 -14
0 -38 -4 -55 -8z"/>
<path d="M70984 23220 c-12 -5 -25 -13 -28 -18 -9 -15 31 -2 45 14 13 16 12
16 -17 4z"/>
<path d="M66028 23213 c7 -3 16 -2 19 1 4 3 -2 6 -13 5 -11 0 -14 -3 -6 -6z"/>
<path d="M66980 23200 c0 -4 20 -13 44 -19 55 -13 70 -13 36 1 -46 19 -80 27
-80 18z"/>
<path d="M65750 23190 c-13 -9 -13 -10 0 -9 8 0 24 4 35 9 l20 9 -20 0 c-11 0
-27 -4 -35 -9z"/>
<path d="M1850 23175 c-7 -9 -11 -17 -9 -20 3 -2 10 5 17 15 14 24 10 26 -8 5z"/>
<path d="M70908 23178 c-16 -5 -28 -13 -28 -18 0 -12 37 0 51 16 13 16 13 16
-23 2z"/>
<path d="M5860 23171 c0 -5 7 -15 17 -22 15 -13 15 -12 4 9 -12 23 -21 28 -21
13z"/>
<path d="M65640 23155 c-19 -7 -28 -14 -20 -14 8 0 29 6 45 14 39 17 21 18
-25 0z"/>
<path d="M67124 23155 c11 -8 25 -15 32 -15 7 0 21 -3 31 -6 17 -5 17 -5 0 6
-10 7 -33 16 -50 21 -30 8 -30 7 -13 -6z"/>
<path d="M70802 23116 c-73 -39 -83 -47 -50 -39 12 4 34 14 47 25 13 10 29 18
36 18 7 0 18 7 25 15 17 20 15 19 -58 -19z"/>
<path d="M1805 23100 c-9 -16 -13 -30 -11 -30 3 0 12 14 21 30 9 17 13 30 11
30 -3 0 -12 -13 -21 -30z"/>
<path d="M65525 23111 c-22 -11 -36 -20 -32 -20 12 -1 77 27 77 33 0 8 0 8
-45 -13z"/>
<path d="M67220 23125 c0 -6 62 -35 74 -35 16 0 -25 26 -51 33 -13 3 -23 4
-23 2z"/>
<path d="M73113 23080 c0 -30 2 -43 4 -27 2 15 2 39 0 55 -2 15 -4 2 -4 -28z"/>
<path d="M5900 23112 c0 -8 8 -26 18 -40 10 -15 24 -39 32 -54 7 -16 15 -26
18 -24 2 3 -12 33 -32 68 -20 35 -36 57 -36 50z"/>
<path d="M65430 23070 c-19 -11 -30 -19 -25 -19 6 0 26 8 45 19 19 11 31 19
25 19 -5 0 -26 -8 -45 -19z"/>
<path d="M67310 23085 c0 -6 63 -35 77 -35 12 0 -30 27 -54 34 -13 4 -23 5
-23 1z"/>
<path d="M70685 23055 c-25 -12 -26 -14 -9 -15 12 0 27 7 34 15 15 18 14 18
-25 0z"/>
<path d="M1770 23039 c-7 -11 -10 -23 -7 -25 2 -2 9 7 15 21 14 30 7 33 -8 4z"/>
<path d="M67400 23046 c0 -7 63 -36 68 -32 2 3 -10 12 -27 20 -31 16 -41 19
-41 12z"/>
<path d="M65334 23025 c-10 -8 -14 -15 -8 -15 5 0 19 7 30 15 10 8 14 15 8 15
-5 0 -19 -7 -30 -15z"/>
<path d="M70591 23014 c-19 -8 -32 -17 -28 -20 3 -3 22 4 44 15 44 23 34 27
-16 5z"/>
<path d="M65385 23010 c-3 -5 -1 -10 4 -10 6 0 11 5 11 10 0 6 -2 10 -4 10 -3
0 -8 -4 -11 -10z"/>
<path d="M67480 23005 c0 -2 12 -10 28 -18 15 -7 45 -24 66 -38 22 -13 36 -18
32 -11 -10 16 -126 78 -126 67z"/>
<path d="M65237 22976 c-58 -35 -69 -53 -12 -21 28 15 54 32 60 36 17 16 -9 8
-48 -15z"/>
<path d="M70491 22974 c-19 -8 -32 -17 -29 -20 7 -6 78 22 78 30 0 9 -12 7
-49 -10z"/>
<path d="M5977 22963 c8 -23 33 -60 33 -50 0 11 -29 67 -35 67 -2 0 -2 -8 2
-17z"/>
<path d="M65305 22970 c-3 -5 -1 -10 4 -10 6 0 11 5 11 10 0 6 -2 10 -4 10 -3
0 -8 -4 -11 -10z"/>
<path d="M1726 22955 c-9 -26 -7 -32 5 -12 6 10 9 21 6 23 -2 3 -7 -2 -11 -11z"/>
<path d="M70382 22933 c-24 -8 -41 -17 -38 -20 6 -6 77 16 91 28 13 13 -2 10
-53 -8z"/>
<path d="M65133 22910 c-34 -20 -47 -38 -15 -21 23 13 58 40 52 41 -3 0 -20
-9 -37 -20z"/>
<path d="M67630 22923 c1 -11 72 -64 78 -58 5 5 -32 39 -60 56 -10 5 -18 6
-18 2z"/>
<path d="M70266 22894 c-22 -8 -42 -17 -45 -20 -10 -10 62 7 89 22 33 17 6 16
-44 -2z"/>
<path d="M6021 22870 c6 -16 15 -32 20 -35 4 -3 3 8 -2 25 -6 16 -15 32 -20
35 -4 3 -3 -8 2 -25z"/>
<path d="M1686 22875 c-9 -26 -7 -32 5 -12 6 10 9 21 6 23 -2 3 -7 -2 -11 -11z"/>
<path d="M70135 22855 c-32 -10 -35 -13 -15 -14 14 0 39 6 55 14 38 17 12 18
-40 0z"/>
<path d="M65010 22824 c-57 -45 -72 -60 -45 -46 23 13 103 81 95 82 -3 0 -25
-16 -50 -36z"/>
<path d="M67774 22818 c16 -13 47 -38 68 -55 39 -32 48 -38 48 -29 0 7 -127
106 -136 106 -5 0 5 -10 20 -22z"/>
<path d="M69962 22820 c-29 -4 -56 -11 -59 -14 -11 -11 61 -5 102 9 45 15 34
16 -43 5z"/>
<path d="M1649 22794 c-5 -15 -8 -29 -5 -31 2 -2 8 10 14 26 13 38 5 41 -9 5z"/>
<path d="M6060 22790 c5 -18 12 -35 16 -39 10 -9 -6 53 -17 63 -5 6 -5 -4 1
-24z"/>
<path d="M69681 22779 c-56 -4 -106 -11 -110 -15 -8 -9 187 4 224 15 35 11 25
11 -114 0z"/>
<path d="M64920 22760 c-8 -5 -12 -12 -9 -15 4 -3 12 1 19 10 14 17 11 19 -10
5z"/>
<path d="M64773 22623 c-117 -116 -190 -193 -182 -193 2 0 72 68 154 150 82
83 147 150 143 150 -3 0 -55 -48 -115 -107z"/>
<path d="M67900 22727 c0 -2 58 -61 129 -131 70 -71 135 -141 144 -155 9 -14
31 -42 49 -61 30 -33 158 -213 158 -224 0 -2 16 -28 35 -57 19 -30 35 -49 35
-43 0 6 -11 28 -25 48 -14 20 -25 39 -25 40 0 9 -140 213 -162 237 -13 14 -43
49 -67 79 -76 93 -271 286 -271 267z"/>
<path d="M1611 22689 c-6 -18 -9 -34 -7 -36 2 -2 9 10 15 28 6 18 9 34 7 36
-2 2 -9 -10 -15 -28z"/>
<path d="M6100 22681 c4 -16 13 -38 20 -48 9 -15 10 -15 4 7 -10 39 -23 70
-28 70 -3 0 -1 -13 4 -29z"/>
<path d="M6137 22580 c3 -19 9 -42 14 -50 15 -26 10 22 -6 55 l-14 30 6 -35z"/>
<path d="M1565 22560 c-4 -17 -5 -34 -2 -36 3 -3 8 9 12 26 4 17 5 34 2 36 -3
3 -8 -9 -12 -26z"/>
<path d="M6181 22413 c-1 -17 4 -35 9 -38 11 -7 11 9 0 45 -8 24 -8 24 -9 -7z"/>
<path d="M1526 22404 c-4 -14 -5 -29 -2 -31 3 -3 8 7 12 21 3 15 4 29 1 32 -2
3 -8 -7 -11 -22z"/>
<path d="M64534 22358 c-58 -73 -72 -94 -56 -84 11 6 90 107 106 134 17 28 -4
8 -50 -50z"/>
<path d="M6216 22192 c4 -41 10 -86 15 -100 11 -35 1 89 -11 138 -7 25 -8 15
-4 -38z"/>
<path d="M64450 22238 c-7 -12 -22 -33 -33 -45 -11 -13 -18 -26 -15 -29 3 -3
20 15 38 41 18 26 30 49 27 52 -3 2 -11 -6 -17 -19z"/>
<path d="M1485 22205 c-3 -26 -4 -49 -2 -51 3 -3 8 16 12 41 3 26 4 49 2 51
-3 3 -8 -16 -12 -41z"/>
<path d="M75422 22175 c-1 -38 -4 -115 -7 -170 -4 -98 -4 -99 6 -30 5 39 8
115 6 170 -2 80 -3 86 -5 30z"/>
<path d="M69383 22175 c0 -27 2 -38 4 -22 2 15 2 37 0 50 -2 12 -4 0 -4 -28z"/>
<path d="M64364 22105 c-9 -14 -15 -28 -12 -30 2 -2 12 9 22 25 21 36 13 40
-10 5z"/>
<path d="M64325 22028 l-16 -33 21 24 c11 13 20 27 20 32 0 18 -10 8 -25 -23z"/>
<path d="M68457 22021 c3 -11 11 -25 18 -31 11 -9 12 -7 8 9 -3 11 -11 25 -18
31 -11 9 -12 7 -8 -9z"/>
<path d="M69392 21990 c-1 -14 5 -68 13 -120 l14 -95 -5 85 c-5 87 -21 180
-22 130z"/>
<path d="M64287 21955 c-9 -19 -15 -35 -12 -35 7 0 37 61 33 66 -3 2 -12 -12
-21 -31z"/>
<path d="M68497 21940 c7 -25 23 -37 23 -17 0 8 -6 20 -14 26 -12 10 -13 8 -9
-9z"/>
<path d="M64256 21892 c-10 -17 -26 -62 -21 -62 7 0 37 62 32 67 -3 2 -8 0
-11 -5z"/>
<path d="M75393 21820 c-17 -90 -27 -176 -20 -170 8 8 39 198 35 218 -2 9 -9
-12 -15 -48z"/>
<path d="M68541 21850 c0 -8 6 -26 14 -40 8 -14 14 -19 14 -10 0 8 -6 26 -14
40 -8 14 -14 19 -14 10z"/>
<path d="M64206 21769 c-9 -23 -15 -43 -13 -46 3 -2 12 15 21 38 9 23 15 43
13 46 -3 2 -12 -15 -21 -38z"/>
<path d="M68580 21751 c11 -41 20 -51 20 -25 0 11 -7 29 -15 40 -13 17 -14 16
-5 -15z"/>
<path d="M69422 21750 c0 -14 2 -19 5 -12 2 6 2 18 0 25 -3 6 -5 1 -5 -13z"/>
<path d="M69431 21700 c-1 -20 29 -163 36 -170 7 -7 -7 83 -22 138 -7 26 -14
40 -14 32z"/>
<path d="M64172 21673 c-16 -42 -24 -73 -19 -73 7 0 38 92 33 97 -2 2 -8 -9
-14 -24z"/>
<path d="M6221 21602 c-13 -101 -13 -129 -1 -89 10 33 24 177 17 177 -2 0 -9
-40 -16 -88z"/>
<path d="M68617 21640 c3 -19 12 -46 19 -60 13 -24 13 -24 7 10 -3 19 -12 46
-19 60 -13 24 -13 24 -7 -10z"/>
<path d="M75353 21589 c-16 -56 -27 -136 -14 -99 22 64 33 108 30 125 -3 10
-9 0 -16 -26z"/>
<path d="M64131 21539 c-14 -39 -15 -72 -2 -49 9 17 23 80 17 80 -2 0 -9 -14
-15 -31z"/>
<path d="M68657 21500 c3 -25 9 -52 14 -60 14 -25 9 31 -6 70 l-14 35 6 -45z"/>
<path d="M69476 21480 c4 -19 13 -50 20 -70 l14 -35 -7 40 c-3 22 -12 54 -19
70 l-14 30 6 -35z"/>
<path d="M75307 21405 c-10 -33 -27 -84 -38 -113 -10 -30 -19 -61 -18 -70 0
-10 18 35 40 98 22 63 38 122 36 130 -1 8 -11 -12 -20 -45z"/>
<path d="M64082 21305 c-7 -43 -10 -80 -8 -82 6 -6 29 132 24 147 -2 7 -9 -22
-16 -65z"/>
<path d="M6187 21357 c-4 -10 -7 -28 -6 -40 0 -21 1 -21 10 2 5 14 8 32 7 40
-3 13 -5 13 -11 -2z"/>
<path d="M69510 21361 c0 -5 21 -69 46 -142 88 -254 231 -531 391 -757 104
-148 363 -441 384 -435 5 2 9 -4 9 -12 0 -9 7 -18 15 -21 8 -3 34 -24 57 -45
24 -21 45 -39 48 -39 3 0 34 -27 69 -60 35 -33 70 -60 76 -60 7 0 20 -9 30
-20 10 -11 22 -20 26 -20 4 0 20 -11 34 -26 14 -14 30 -22 35 -19 6 3 10 2 10
-3 0 -5 12 -15 28 -23 15 -8 35 -22 44 -32 9 -10 25 -17 34 -15 11 2 -10 20
-61 53 -238 150 -515 397 -702 625 -81 98 -241 324 -254 358 -5 12 -24 46 -42
75 -31 48 -104 193 -140 277 -55 129 -69 165 -97 253 -29 89 -40 113 -40 88z"/>
<path d="M68697 21292 c3 -40 9 -87 14 -105 6 -22 7 -8 4 43 -3 41 -10 89 -15
105 -7 22 -8 10 -3 -43z"/>
<path d="M6140 21180 c-15 -55 -7 -63 9 -9 7 22 10 43 7 46 -2 3 -10 -14 -16
-37z"/>
<path d="M1461 21198 c0 -9 -8 -21 -17 -26 -15 -8 -15 -10 0 -15 19 -8 30 12
23 40 -4 16 -5 16 -6 1z"/>
<path d="M75232 21183 c-5 -10 -12 -31 -15 -48 -5 -24 -2 -22 14 13 20 42 21
73 1 35z"/>
<path d="M555 21150 c-28 -4 1 -5 65 -2 63 2 117 6 119 8 7 6 -130 1 -184 -6z"/>
<path d="M660 21130 c-14 -4 -61 -8 -106 -9 -44 -1 -92 -7 -107 -13 l-27 -13
3 -2332 c1 -1282 5 -2334 8 -2338 4 -3 152 -6 330 -7 183 0 315 -4 304 -8 -16
-7 -13 -8 15 -8 46 1 103 15 75 18 -11 2 -27 4 -35 5 -8 1 -23 3 -32 4 -10 0
-18 5 -18 10 0 5 47 12 105 16 75 5 105 11 105 20 0 8 24 15 74 20 48 4 76 11
80 20 3 8 29 16 60 20 38 5 56 12 56 21 0 8 9 15 20 15 11 1 25 3 30 4 6 1 21
3 35 4 15 0 25 7 25 16 0 9 14 17 39 21 22 4 42 12 45 20 3 7 21 16 40 20 20
3 36 12 36 19 0 8 17 16 40 20 25 4 40 12 40 21 0 8 7 14 15 14 8 0 24 9 35
20 11 11 31 22 46 26 14 4 28 13 31 20 3 7 20 16 39 20 20 4 34 12 34 21 0 8
9 17 20 20 11 3 20 12 20 19 0 8 5 14 11 14 6 0 24 10 39 23 15 12 42 33 60
46 43 33 290 281 290 291 0 5 8 15 19 22 10 7 21 23 25 36 4 12 14 22 22 22 8
0 14 7 14 15 0 8 9 20 20 27 11 7 20 17 20 21 0 13 27 37 34 30 3 -4 6 8 6 25
0 21 7 35 20 42 11 6 20 17 20 25 0 9 9 23 20 32 11 10 20 25 20 35 0 10 9 23
20 30 12 8 20 24 20 40 0 17 8 33 20 40 12 8 20 24 20 40 0 17 8 33 20 40 11
7 20 24 20 38 1 27 23 64 33 53 4 -3 7 16 7 44 0 47 18 82 33 66 4 -3 7 15 7
40 0 34 6 53 20 67 11 11 20 33 20 50 0 36 22 110 32 110 5 0 8 20 8 45 0 57
19 148 34 157 7 5 11 162 13 520 2 282 7 514 12 516 13 4 21 -37 14 -71 -4
-19 -2 -28 4 -24 5 3 10 23 11 43 1 21 5 41 9 45 5 4 220 9 478 12 284 3 482
9 500 16 26 9 24 9 -20 5 -27 -2 -633 -5 -1345 -7 l-1295 -2 0 822 0 822 -395
0 c-217 -1 -406 -4 -420 -9z m800 -22 c0 -18 -2 -20 -9 -8 -6 8 -7 18 -5 22 9
14 14 9 14 -14z m-953 -4 c-3 -3 -12 -4 -19 -1 -8 3 -5 6 6 6 11 1 17 -2 13
-5z"/>
<path d="M64064 21035 c0 -55 1 -76 3 -47 2 29 2 74 0 100 -2 26 -3 2 -3 -53z"/>
<path d="M68725 18655 c0 -1364 1 -1921 2 -1237 2 684 2 1800 0 2480 -1 680
-2 121 -2 -1243z"/>
<path d="M6110 21097 c0 -1 -4 -18 -10 -37 -9 -32 -8 -33 5 -16 14 19 21 56
10 56 -3 0 -5 -1 -5 -3z"/>
<path d="M75192 21078 c-6 -7 -13 -27 -17 -43 -6 -28 -5 -28 15 8 21 39 23 59
2 35z"/>
<path d="M75153 20988 c-6 -7 -14 -24 -18 -38 -4 -14 -13 -32 -20 -40 -8 -8
-16 -28 -20 -45 -3 -18 11 2 35 49 38 71 48 106 23 74z"/>
<path d="M6060 20960 c-7 -17 -10 -33 -8 -36 3 -2 11 9 18 26 7 17 10 33 8 36
-3 2 -11 -9 -18 -26z"/>
<path d="M6021 20868 c-10 -30 -9 -31 4 -14 8 11 15 26 15 33 0 22 -8 14 -19
-19z"/>
<path d="M75061 20806 c-6 -16 -10 -31 -7 -33 7 -8 28 37 23 50 -3 7 -10 -1
-16 -17z"/>
<path d="M5982 20796 c-17 -37 -15 -45 4 -18 8 12 14 27 12 33 -2 6 -9 -1 -16
-15z"/>
<path d="M64055 18480 c0 -1279 1 -1802 2 -1163 2 640 2 1686 0 2325 -1 640
-2 117 -2 -1162z"/>
<path d="M75017 20722 c-8 -21 -22 -44 -31 -51 -9 -8 -16 -20 -16 -29 0 -30
33 16 78 111 2 4 -1 7 -6 7 -5 0 -17 -17 -25 -38z"/>
<path d="M5943 20723 c-3 -10 -8 -22 -10 -28 -3 -5 3 -1 11 9 16 20 21 36 11
36 -3 0 -8 -8 -12 -17z"/>
<path d="M5897 20643 c-5 -26 -4 -26 9 -8 16 22 18 35 5 35 -5 0 -11 -12 -14
-27z"/>
<path d="M74922 20571 c-35 -54 -40 -70 -16 -50 17 14 58 89 51 95 -2 2 -18
-18 -35 -45z"/>
<path d="M5860 20585 c-7 -9 -11 -18 -8 -20 3 -3 11 1 18 10 7 9 11 18 8 20
-3 3 -11 -1 -18 -10z"/>
<path d="M5820 20518 c-12 -22 -12 -22 6 -6 10 10 15 20 12 24 -4 3 -12 -5
-18 -18z"/>
<path d="M74861 20477 c-8 -12 -32 -43 -54 -70 -22 -26 -37 -50 -33 -54 4 -5
12 1 18 12 6 11 22 30 35 43 24 24 57 81 51 87 -2 2 -10 -6 -17 -18z"/>
<path d="M5766 20449 c-20 -23 -36 -47 -36 -53 0 -6 9 0 21 14 66 83 77 109
15 39z"/>
<path d="M40365 20430 c-27 -7 -28 -8 -5 -8 14 -1 43 3 65 7 l40 9 -35 0 c-19
0 -48 -4 -65 -8z"/>
<path d="M41205 20429 c22 -4 54 -8 70 -7 26 0 25 1 -10 9 -22 4 -53 8 -70 7
-26 0 -25 -1 10 -9z"/>
<path d="M41123 20413 c9 -2 23 -2 30 0 6 3 -1 5 -18 5 -16 0 -22 -2 -12 -5z"/>
<path d="M41410 20390 c8 -5 22 -9 30 -9 10 0 8 3 -5 9 -27 12 -43 12 -25 0z"/>
<path d="M40063 20350 c-34 -14 -28 -21 7 -9 17 6 30 13 30 15 0 6 -12 4 -37
-6z"/>
<path d="M74743 20326 c-10 -17 -148 -169 -218 -240 -139 -141 -411 -359 -522
-419 -95 -50 -187 -111 -175 -115 7 -2 21 3 30 11 9 8 58 38 107 67 124 71
174 105 265 178 44 34 81 62 84 62 11 0 124 107 260 244 133 136 208 226 187
226 -6 0 -14 -6 -18 -14z"/>
<path d="M5670 20319 c0 -5 5 -7 10 -4 6 3 10 8 10 11 0 2 -4 4 -10 4 -5 0
-10 -5 -10 -11z"/>
<path d="M41650 20310 c8 -5 22 -9 30 -9 10 0 8 3 -5 9 -27 12 -43 12 -25 0z"/>
<path d="M5599 20252 c-88 -93 -124 -135 -110 -127 8 4 37 33 65 63 28 31 62
66 75 79 13 13 22 25 19 28 -2 2 -24 -17 -49 -43z"/>
<path d="M39844 20265 c-10 -8 -14 -15 -8 -15 5 0 19 7 30 15 10 8 14 15 8 15
-5 0 -19 -7 -30 -15z"/>
<path d="M41760 20270 c8 -5 20 -10 25 -10 6 0 3 5 -5 10 -8 5 -19 10 -25 10
-5 0 -3 -5 5 -10z"/>
<path d="M39764 20224 c-18 -14 -18 -14 6 -3 31 14 36 19 24 19 -6 0 -19 -7
-30 -16z"/>
<path d="M39684 20184 c-18 -14 -18 -14 6 -3 31 14 36 19 24 19 -6 0 -19 -7
-30 -16z"/>
<path d="M39616 20145 c-11 -8 -15 -15 -9 -15 6 0 16 7 23 15 16 19 11 19 -14
0z"/>
<path d="M39549 20103 c-13 -15 -12 -15 11 -3 34 17 36 20 18 20 -9 0 -22 -7
-29 -17z"/>
<path d="M5440 20087 c-14 -12 -43 -37 -65 -54 -22 -18 -35 -33 -29 -33 10 0
134 109 124 109 -3 0 -16 -10 -30 -22z"/>
<path d="M39489 20063 c-13 -15 -12 -15 9 -4 23 12 28 21 13 21 -5 0 -15 -7
-22 -17z"/>
<path d="M42130 20076 c0 -2 8 -10 18 -17 15 -13 16 -12 3 4 -13 16 -21 21
-21 13z"/>
<path d="M39445 20030 c-3 -6 1 -7 9 -4 18 7 21 14 7 14 -6 0 -13 -4 -16 -10z"/>
<path d="M5308 19983 c-9 -2 -19 -11 -22 -19 -4 -11 -1 -11 19 2 14 9 25 18
25 20 0 2 -1 3 -2 3 -2 -1 -10 -3 -20 -6z"/>
<path d="M39340 19950 c-9 -6 -10 -10 -3 -10 6 0 15 5 18 10 8 12 4 12 -15 0z"/>
<path d="M5249 19933 c-13 -16 -12 -17 4 -4 16 13 21 21 13 21 -2 0 -10 -8
-17 -17z"/>
<path d="M42300 19940 c0 -5 5 -10 11 -10 5 0 7 5 4 10 -3 6 -8 10 -11 10 -2
0 -4 -4 -4 -10z"/>
<path d="M42330 19916 c0 -2 8 -10 18 -17 15 -13 16 -12 3 4 -13 16 -21 21
-21 13z"/>
<path d="M5190 19898 c-16 -7 -20 -12 -12 -15 8 -3 21 2 30 11 19 18 17 19
-18 4z"/>
<path d="M5130 19855 c-8 -9 -8 -15 -2 -15 12 0 26 19 19 26 -2 2 -10 -2 -17
-11z"/>
<path d="M5068 19823 c-9 -2 -19 -11 -22 -19 -4 -12 -2 -12 14 -4 15 8 40 33
28 29 -2 -1 -10 -3 -20 -6z"/>
<path d="M5000 19775 c-17 -10 -20 -14 -9 -15 9 0 22 7 29 15 15 18 12 18 -20
0z"/>
<path d="M4924 19740 c-12 -5 -25 -14 -29 -20 -4 -7 7 -4 24 4 17 9 31 19 31
21 0 6 1 6 -26 -5z"/>
<path d="M4833 19695 c-18 -8 -33 -16 -33 -19 0 -8 59 15 66 25 7 11 6 11 -33
-6z"/>
<path d="M4740 19658 c-16 -7 -20 -12 -12 -15 8 -3 21 2 30 11 19 18 17 19
-18 4z"/>
<path d="M42645 19598 c22 -27 41 -48 43 -48 7 0 -36 56 -59 75 -12 11 -5 -1
16 -27z"/>
<path d="M4610 19610 c0 -13 20 -13 40 0 12 8 9 10 -12 10 -16 0 -28 -4 -28
-10z"/>
<path d="M70870 19615 c0 -2 14 -11 30 -20 17 -9 30 -11 30 -6 0 6 -9 15 -19
21 -21 11 -41 13 -41 5z"/>
<path d="M4512 19580 c-18 -4 -36 -10 -39 -14 -11 -11 32 -5 62 9 34 15 26 17
-23 5z"/>
<path d="M38960 19579 c0 -5 5 -7 10 -4 6 3 10 8 10 11 0 2 -4 4 -10 4 -5 0
-10 -5 -10 -11z"/>
<path d="M70940 19581 c0 -5 48 -33 108 -62 59 -29 112 -55 117 -58 6 -3 4 3
-4 12 -7 9 -19 17 -25 17 -10 0 -85 38 -164 83 -18 10 -32 13 -32 8z"/>
<path d="M38929 19533 c-13 -16 -12 -17 4 -4 9 7 17 15 17 17 0 8 -8 3 -21
-13z"/>
<path d="M73760 19530 c-24 -19 -24 -20 -4 -20 11 0 29 9 39 20 24 27 -1 27
-35 0z"/>
<path d="M4310 19530 c-11 -7 -8 -10 15 -9 17 0 39 4 50 9 16 7 14 9 -15 9
-19 0 -42 -4 -50 -9z"/>
<path d="M73680 19490 c-19 -15 -21 -20 -9 -20 9 0 27 9 40 20 32 26 3 27 -31
0z"/>
<path d="M38885 19469 c-4 -6 -5 -12 -2 -15 2 -3 7 2 10 11 7 17 1 20 -8 4z"/>
<path d="M42740 19476 c0 -4 11 -21 25 -38 14 -16 25 -26 25 -21 -1 11 -50 70
-50 59z"/>
<path d="M73580 19444 c-25 -13 -34 -22 -20 -18 35 9 98 43 80 43 -8 0 -35
-11 -60 -25z"/>
<path d="M71200 19445 c35 -20 62 -19 36 0 -11 8 -29 15 -40 15 -19 -1 -19 -2
4 -15z"/>
<path d="M38849 19413 c-13 -16 -12 -17 4 -4 9 7 17 15 17 17 0 8 -8 3 -21
-13z"/>
<path d="M71276 19421 c-7 -11 38 -34 59 -29 13 2 8 8 -18 20 -20 10 -39 14
-41 9z"/>
<path d="M73475 19404 c-27 -13 -58 -24 -68 -24 -10 0 -28 -6 -40 -14 -12 -8
-40 -17 -61 -21 -37 -6 -94 -35 -70 -35 18 0 278 91 288 100 19 19 0 17 -49
-6z"/>
<path d="M71400 19365 c14 -8 34 -14 45 -14 18 0 17 1 -5 14 -14 8 -34 14 -45
14 -18 0 -17 -1 5 -14z"/>
<path d="M3142 19115 c-1 -143 -4 -312 -6 -375 l-5 -115 10 105 c5 58 8 227 6
375 l-2 270 -3 -260z"/>
<path d="M42826 19347 c3 -10 9 -15 12 -12 3 3 0 11 -7 18 -10 9 -11 8 -5 -6z"/>
<path d="M71509 19329 c47 -21 95 -23 56 -2 -11 6 -38 13 -60 16 l-40 7 44
-21z"/>
<path d="M71624 19303 c10 -10 80 -33 85 -27 9 9 -15 22 -53 27 -21 4 -36 3
-32 0z"/>
<path d="M73127 19296 c-48 -13 -72 -26 -46 -26 8 0 41 9 74 19 67 22 46 27
-28 7z"/>
<path d="M71790 19261 c49 -17 138 -33 151 -29 16 5 -61 24 -131 32 -32 3 -38
2 -20 -3z"/>
<path d="M72985 19263 c-11 -2 -44 -9 -73 -14 -30 -6 -51 -13 -48 -16 5 -5
177 26 185 33 5 5 -37 3 -64 -3z"/>
<path d="M38726 19224 c-9 -24 -2 -26 12 -4 7 11 8 20 3 20 -5 0 -12 -7 -15
-16z"/>
<path d="M42900 19235 c0 -5 5 -17 10 -25 5 -8 10 -10 10 -5 0 6 -5 17 -10 25
-5 8 -10 11 -10 5z"/>
<path d="M72003 19223 c9 -2 23 -2 30 0 6 3 -1 5 -18 5 -16 0 -22 -2 -12 -5z"/>
<path d="M72631 19219 c-63 -5 -122 -11 -130 -13 -24 -8 237 5 289 14 l45 7
-45 0 c-25 0 -97 -4 -159 -8z"/>
<path d="M72120 19210 c41 -4 107 -7 145 -7 l70 0 -60 7 c-33 4 -98 8 -145 7
l-85 0 75 -7z"/>
<path d="M38686 19144 c-9 -24 -2 -26 12 -4 7 11 8 20 3 20 -5 0 -12 -7 -15
-16z"/>
<path d="M42940 19155 c0 -5 5 -17 10 -25 5 -8 10 -10 10 -5 0 6 -5 17 -10 25
-5 8 -10 11 -10 5z"/>
<path d="M38650 19065 c-7 -9 -10 -18 -7 -21 3 -3 10 4 17 15 13 25 8 27 -10
6z"/>
<path d="M42980 19065 c0 -8 4 -15 10 -15 5 0 7 7 4 15 -4 8 -8 15 -10 15 -2
0 -4 -7 -4 -15z"/>
<path d="M38610 18969 c-6 -11 -10 -25 -7 -32 2 -6 9 3 15 21 12 36 8 42 -8
11z"/>
<path d="M43020 18971 c0 -6 4 -13 10 -16 6 -3 7 1 4 9 -7 18 -14 21 -14 7z"/>
<path d="M43050 18883 c0 -4 5 -15 10 -23 8 -13 10 -13 10 2 0 9 -4 20 -10 23
-5 3 -10 3 -10 -2z"/>
<path d="M38570 18859 c-6 -11 -10 -25 -8 -30 2 -5 8 4 15 21 13 34 9 40 -7 9z"/>
<path d="M43096 18755 c8 -37 14 -45 14 -19 0 10 -5 26 -10 34 -8 11 -9 7 -4
-15z"/>
<path d="M38525 18720 c-4 -17 -5 -34 -2 -36 2 -3 7 10 11 27 8 42 0 50 -9 9z"/>
<path d="M38486 18578 c-3 -13 -5 -32 -5 -43 1 -11 5 -2 10 19 10 42 6 62 -5
24z"/>
<path d="M43141 18580 c0 -14 4 -32 9 -40 9 -13 10 -13 9 0 -1 8 -5 26 -9 40
l-8 25 -1 -25z"/>
<path d="M3106 18423 c-3 -16 -7 -48 -11 -73 -4 -34 -3 -40 5 -23 11 27 25
123 17 123 -3 0 -8 -12 -11 -27z"/>
<path d="M38452 18360 c0 -14 2 -19 5 -12 2 6 2 18 0 25 -3 6 -5 1 -5 -13z"/>
<path d="M43178 17857 c2 -270 6 -495 10 -498 4 -3 21 -2 37 2 22 5 24 7 9 8
-12 0 -25 9 -29 19 -4 9 -10 218 -12 465 -3 246 -8 458 -11 472 -4 14 -6 -197
-4 -468z"/>
<path d="M38443 18260 c0 -41 2 -58 4 -37 2 20 2 54 0 75 -2 20 -4 3 -4 -38z"/>
<path d="M3065 18210 c-4 -17 -5 -34 -2 -36 3 -3 8 9 12 26 4 17 5 34 2 36 -3
3 -8 -9 -12 -26z"/>
<path d="M3020 18055 c-7 -20 -10 -39 -7 -41 3 -3 10 11 17 31 7 20 10 39 7
41 -3 3 -10 -11 -17 -31z"/>
<path d="M2982 17943 c-15 -48 -8 -55 8 -8 7 20 10 38 8 41 -3 2 -10 -13 -16
-33z"/>
<path d="M38441 17889 c0 -41 4 -83 8 -94 5 -11 6 20 3 70 -6 111 -12 124 -11
24z"/>
<path d="M2941 17839 c-14 -42 -7 -49 9 -9 7 17 10 33 8 36 -3 3 -11 -9 -17
-27z"/>
<path d="M2902 17751 c-6 -17 -9 -31 -6 -31 7 0 25 52 20 57 -2 2 -8 -10 -14
-26z"/>
<path d="M2863 17673 c-3 -10 -8 -22 -10 -28 -3 -5 3 -1 11 9 16 20 21 36 11
36 -3 0 -8 -8 -12 -17z"/>
<path d="M38482 17620 c0 -14 3 -34 8 -45 l9 -20 -1 20 c0 11 -4 31 -8 45 l-8
25 0 -25z"/>
<path d="M2823 17603 c-3 -10 -8 -22 -10 -28 -3 -5 3 -1 11 9 16 20 21 36 11
36 -3 0 -8 -8 -12 -17z"/>
<path d="M2783 17533 c-3 -10 -8 -22 -10 -28 -3 -5 3 -1 11 9 16 20 21 36 11
36 -3 0 -8 -8 -12 -17z"/>
<path d="M2740 17458 c-12 -22 -12 -22 6 -6 10 10 15 20 12 24 -4 3 -12 -5
-18 -18z"/>
<path d="M38521 17465 c0 -11 4 -29 9 -40 l9 -20 0 20 c0 11 -4 29 -9 40 l-9
20 0 -20z"/>
<path d="M2700 17398 c-12 -22 -12 -22 6 -6 10 10 15 20 12 24 -4 3 -12 -5
-18 -18z"/>
<path d="M2660 17355 c-7 -9 -10 -18 -7 -21 3 -3 10 4 17 15 13 25 8 27 -10 6z"/>
<path d="M43705 17360 c209 -5 429 -13 489 -19 61 -6 111 -9 113 -7 2 2 -29 9
-69 16 -50 9 -204 14 -493 15 l-420 2 380 -7z"/>
<path d="M43238 17342 c-36 -2 -46 -6 -41 -18 3 -7 0 -14 -6 -14 -6 0 -11 -9
-11 -20 0 -11 4 -20 9 -20 6 0 9 -134 9 -332 -1 -183 -4 -310 -8 -283 -4 28
-7 -94 -8 -270 0 -186 3 -312 8 -300 7 16 9 17 9 3 1 -9 -4 -20 -9 -23 -7 -4
-6 -13 1 -26 7 -15 7 -24 -2 -35 -8 -10 -8 -14 0 -14 6 0 11 -17 11 -40 0 -22
-4 -40 -10 -40 -13 0 -13 -87 0 -95 6 -4 9 -14 6 -23 -3 -10 -6 -35 -7 -58
l-3 -40 -190 2 -191 1 167 -6 c91 -3 169 -8 171 -11 5 -4 -1591 -3 -1618 2 -5
1 15 4 45 8 30 4 -183 7 -475 7 -354 0 -484 -3 -390 -8 77 -4 288 -7 469 -8
181 0 332 -4 337 -8 4 -4 9 -226 12 -493 3 -300 9 -496 15 -515 8 -22 9 12 7
135 -5 185 9 200 19 20 3 -63 8 -149 11 -190 5 -74 5 -74 -9 -35 l-14 40 -1
-37 c-1 -35 23 -145 34 -156 3 -3 5 13 5 36 0 56 16 62 18 7 1 -24 6 -55 12
-70 12 -32 -7 -35 -20 -2 -8 20 -9 20 -9 2 0 -26 22 -112 32 -121 4 -4 7 -18
7 -31 0 -13 9 -42 19 -64 11 -22 23 -54 27 -72 20 -93 251 -516 320 -584 10
-10 29 -36 43 -58 31 -48 67 -90 142 -164 128 -127 206 -199 248 -226 25 -17
61 -47 82 -67 21 -21 45 -38 54 -38 8 0 15 -4 15 -9 0 -5 8 -12 19 -16 10 -3
29 -15 42 -26 13 -11 36 -23 51 -26 16 -3 28 -10 28 -15 0 -5 14 -14 30 -19
17 -6 30 -14 30 -18 0 -9 45 -31 62 -31 6 0 5 7 -3 17 -13 15 -10 16 31 9 25
-4 49 -11 53 -15 7 -7 2 -9 -43 -13 -11 -1 -20 -5 -20 -9 0 -8 47 -29 65 -29
8 0 15 -4 15 -8 0 -9 44 -32 62 -32 7 0 6 5 -2 15 -11 13 -7 15 27 15 21 0 48
-7 59 -15 18 -13 17 -14 -16 -21 l-34 -7 34 -13 c48 -17 60 -17 53 2 -5 13 1
15 32 12 35 -3 62 -26 36 -29 -6 -1 -15 -3 -21 -4 -5 -1 -13 -3 -17 -4 -13 -3
40 -30 58 -31 9 0 19 7 23 15 6 16 42 19 95 9 38 -8 41 -24 4 -25 -16 0 -36
-4 -46 -8 -14 -5 -7 -10 28 -19 40 -11 48 -10 62 4 13 13 28 15 67 10 28 -3
74 -6 101 -6 36 0 46 -3 35 -10 -8 -5 -46 -10 -83 -10 -81 0 -81 -15 0 -24 32
-3 77 -9 101 -12 36 -5 41 -4 36 10 -6 14 21 16 271 16 257 0 276 -1 264 -17
-13 -15 -10 -16 36 -9 28 3 78 9 113 13 75 7 90 19 24 19 -170 0 -173 18 -5
28 100 6 112 5 107 -8 -8 -20 -5 -20 62 0 59 17 70 27 27 23 -96 -7 -98 16 -3
26 50 5 70 11 70 21 0 8 8 14 19 14 10 0 33 3 50 6 24 5 31 3 31 -10 0 -22 33
-20 61 4 l24 21 -34 -3 c-48 -4 -52 19 -4 25 21 3 49 5 62 6 22 0 22 -1 5 -14
-24 -18 -7 -19 29 -2 33 15 35 27 5 27 -13 0 -30 5 -38 10 -11 7 -7 10 18 10
l32 0 2 2150 c1 1183 2 2158 2 2167 1 13 -9 19 -36 24 -20 3 -43 10 -50 16 -7
6 -33 16 -58 23 -25 7 -47 16 -50 20 -3 4 -34 15 -70 23 -172 43 -196 49 -215
58 -26 12 -147 29 -205 29 -26 0 -50 4 -56 10 -9 9 -771 19 -886 12z m-41
-804 c-2 -13 -4 -3 -4 22 0 25 2 35 4 23 2 -13 2 -33 0 -45z m0 -90 c-3 -7 -5
-2 -5 12 0 14 2 19 5 13 2 -7 2 -19 0 -25z m10 -710 c-3 -8 -6 -5 -6 6 -1 11
2 17 5 13 3 -3 4 -12 1 -19z m-1657 -109 c0 -10 -4 -19 -10 -19 -5 0 -10 12
-10 26 0 14 4 23 10 19 6 -3 10 -15 10 -26z m-6 -74 c-4 -8 -8 -15 -10 -15 -2
0 -4 7 -4 15 0 8 4 15 10 15 5 0 7 -7 4 -15z m-7 -127 c-2 -13 -4 -5 -4 17 -1
22 1 32 4 23 2 -10 2 -28 0 -40z m0 -50 c-3 -8 -6 -5 -6 6 -1 11 2 17 5 13 3
-3 4 -12 1 -19z m116 -1060 c3 -21 2 -38 -3 -38 -13 0 -19 13 -26 61 -6 39 -5
42 9 29 8 -8 17 -32 20 -52z m25 -90 c6 -13 13 -36 17 -52 5 -26 4 -28 -9 -17
-9 8 -16 22 -16 33 0 11 -5 28 -10 39 -6 10 -7 19 -2 19 5 0 14 -10 20 -22z
m48 -133 c18 -44 18 -65 0 -39 -17 24 -31 74 -22 74 4 0 14 -16 22 -35z m49
-120 c7 -29 7 -29 -8 -10 -9 11 -17 29 -17 40 0 27 17 7 25 -30z m35 -66 c0
-11 -4 -17 -10 -14 -5 3 -10 15 -10 26 0 11 5 17 10 14 6 -3 10 -15 10 -26z
m59 -99 c16 -24 27 -48 24 -53 -3 -5 -10 -1 -16 9 -6 10 -19 28 -29 38 -10 11
-18 29 -18 40 0 23 1 22 39 -34z m63 -105 c3 -14 2 -25 -3 -25 -12 0 -30 36
-22 44 12 12 21 6 25 -19z m38 -71 c0 -8 -4 -12 -10 -9 -5 3 -10 10 -10 16 0
5 5 9 10 9 6 0 10 -7 10 -16z m40 -35 c0 -6 9 -24 21 -40 11 -16 19 -35 16
-42 -3 -7 -9 -1 -15 13 -5 14 -19 34 -31 44 -25 22 -27 36 -6 36 8 0 15 -5 15
-11z m85 -129 c3 -11 13 -20 21 -20 8 0 14 -4 14 -8 0 -13 56 -72 68 -72 7 0
12 -7 12 -16 0 -9 9 -18 20 -21 11 -3 20 -12 20 -20 0 -8 9 -17 19 -20 11 -3
21 -13 24 -24 3 -10 12 -19 20 -19 9 0 19 -9 22 -20 3 -11 12 -20 20 -20 8 0
17 -9 20 -20 3 -11 12 -20 20 -20 7 0 15 -9 18 -20 3 -13 11 -18 20 -14 19 7
28 -8 17 -26 -6 -10 -55 33 -194 171 -102 102 -186 191 -186 197 0 20 18 13
25 -8z m416 -381 c11 -5 17 -14 14 -18 -3 -5 6 -12 20 -15 14 -4 25 -11 25
-17 0 -5 14 -15 30 -21 24 -8 28 -13 19 -24 -14 -17 -31 -8 -81 40 -20 20 -41
36 -46 36 -5 0 -15 7 -22 15 -10 12 -9 15 4 15 10 0 26 -5 37 -11z m178 -123
c19 -22 -6 -30 -34 -12 -14 9 -25 19 -25 21 0 11 49 4 59 -9z m78 -39 c7 -5
10 -13 7 -18 -3 -5 5 -9 18 -9 14 0 32 -6 43 -14 17 -12 16 -13 -10 -20 -22
-6 -33 -2 -54 17 -14 14 -36 28 -48 32 -13 3 -23 11 -23 16 0 12 49 9 67 -4z
m228 -121 c17 -12 17 -13 -8 -20 -23 -5 -77 15 -77 30 0 10 68 2 85 -10z"/>
<path d="M38561 17330 c0 -8 4 -22 9 -30 12 -18 12 -2 0 25 -6 13 -9 15 -9 5z"/>
<path d="M44330 17325 c0 -6 66 -22 120 -29 44 -5 44 -5 -15 14 -57 19 -105
26 -105 15z"/>
<path d="M2620 17305 c-7 -9 -11 -18 -8 -20 3 -3 11 1 18 10 7 9 11 18 8 20
-3 3 -11 -1 -18 -10z"/>
<path d="M44504 17282 c3 -6 32 -16 64 -22 31 -7 68 -18 82 -25 14 -7 42 -16
62 -20 21 -4 42 -13 49 -21 6 -8 25 -14 42 -14 42 0 31 7 -65 42 -156 56 -246
79 -234 60z"/>
<path d="M2587 17263 c-4 -3 -7 -11 -7 -17 0 -6 5 -5 12 2 6 6 9 14 7 17 -3 3
-9 2 -12 -2z"/>
<path d="M38600 17224 c0 -11 7 -29 15 -40 13 -17 14 -16 3 16 -14 43 -18 49
-18 24z"/>
<path d="M43184 17105 c0 -49 1 -71 3 -48 2 23 2 64 0 90 -2 26 -3 8 -3 -42z"/>
<path d="M38640 17118 c0 -9 7 -22 17 -29 15 -13 15 -12 3 11 -17 34 -20 36
-20 18z"/>
<path d="M38670 17067 c0 -15 30 -80 36 -74 3 3 -4 22 -15 44 -11 21 -20 34
-21 30z"/>
<path d="M43183 16975 c0 -22 2 -30 4 -17 2 12 2 30 0 40 -3 9 -5 -1 -4 -23z"/>
<path d="M38722 16949 c6 -16 12 -28 14 -26 5 5 -13 57 -20 57 -3 0 0 -14 6
-31z"/>
<path d="M2260 16930 c-9 -6 -10 -10 -3 -10 6 0 15 5 18 10 8 12 4 12 -15 0z"/>
<path d="M2210 16889 c0 -5 5 -7 10 -4 6 3 10 8 10 11 0 2 -4 4 -10 4 -5 0
-10 -5 -10 -11z"/>
<path d="M38760 16881 c0 -6 4 -13 10 -16 6 -3 7 1 4 9 -7 18 -14 21 -14 7z"/>
<path d="M2105 16810 c-3 -5 -2 -10 4 -10 5 0 13 5 16 10 3 6 2 10 -4 10 -5 0
-13 -4 -16 -10z"/>
<path d="M38800 16811 c0 -5 7 -15 17 -22 15 -13 15 -12 4 9 -12 23 -21 28
-21 13z"/>
<path d="M2045 16770 c-3 -5 -2 -10 4 -10 5 0 13 5 16 10 3 6 2 10 -4 10 -5 0
-13 -4 -16 -10z"/>
<path d="M38840 16753 c0 -6 8 -17 18 -24 16 -13 16 -13 2 6 -8 11 -16 22 -17
24 -2 2 -3 0 -3 -6z"/>
<path d="M1975 16730 c-8 -13 5 -13 25 0 13 8 13 10 -2 10 -9 0 -20 -4 -23
-10z"/>
<path d="M38880 16691 c0 -6 4 -13 10 -16 6 -3 7 1 4 9 -7 18 -14 21 -14 7z"/>
<path d="M1846 16654 c-11 -8 -16 -14 -10 -14 13 0 39 18 34 24 -3 2 -14 -2
-24 -10z"/>
<path d="M38930 16622 c6 -13 14 -21 18 -18 3 4 -2 14 -12 24 -18 16 -18 16
-6 -6z"/>
<path d="M38960 16581 c0 -5 5 -13 10 -16 6 -3 10 -2 10 4 0 5 -4 13 -10 16
-5 3 -10 2 -10 -4z"/>
<path d="M1660 16570 c-13 -9 -13 -10 0 -10 8 0 22 5 30 10 13 9 13 10 0 10
-8 0 -22 -5 -30 -10z"/>
<path d="M1562 16534 c-10 -11 -10 -14 0 -14 7 0 19 4 26 9 11 7 11 9 0 13 -7
3 -19 -1 -26 -8z"/>
<path d="M38996 16537 c3 -10 9 -15 12 -12 3 3 0 11 -7 18 -10 9 -11 8 -5 -6z"/>
<path d="M1455 16495 c-23 -10 -25 -14 -10 -14 21 -1 52 15 45 23 -3 2 -18 -2
-35 -9z"/>
<path d="M1281 16453 c-14 -15 -12 -16 19 -9 47 9 63 26 25 26 -17 -1 -36 -8
-44 -17z"/>
<path d="M39280 16266 c0 -2 8 -10 18 -17 15 -13 16 -12 3 4 -13 16 -21 21
-21 13z"/>
<path d="M39380 16186 c0 -2 8 -10 18 -17 15 -13 16 -12 3 4 -13 16 -21 21
-21 13z"/>
<path d="M39494 16096 c11 -9 24 -16 30 -16 12 0 7 5 -24 19 -24 11 -24 11 -6
-3z"/>
<path d="M64053 16015 c0 -27 2 -38 4 -22 2 15 2 37 0 50 -2 12 -4 0 -4 -28z"/>
<path d="M39625 16010 c3 -5 11 -10 16 -10 6 0 7 5 4 10 -3 6 -11 10 -16 10
-6 0 -7 -4 -4 -10z"/>
<path d="M66315 15940 l-2240 -5 2319 -3 c1276 -1 2316 1 2312 6 -4 4 -40 7
-79 7 -40 0 -1080 -2 -2312 -5z"/>
<path d="M40180 15776 c0 -2 11 -6 25 -8 13 -3 22 -1 19 3 -5 9 -44 13 -44 5z"/>
<path d="M40348 15733 c6 -2 18 -2 25 0 6 3 1 5 -13 5 -14 0 -19 -2 -12 -5z"/>
<path d="M41698 15693 c7 -3 16 -2 19 1 4 3 -2 6 -13 5 -11 0 -14 -3 -6 -6z"/>
<path d="M44602 12690 c-16 -25 1 -27 46 -4 40 20 40 24 -1 24 -21 0 -36 -7
-45 -20z"/>
</g>
</svg>
